<?xml version="1.0" encoding="iso-8859-1"?>
<!-- Generator: Adobe Illustrator 18.1.1, SVG Export Plug-In . SVG Version: 6.00 Build 0)  -->
<svg version="1.1" id="Layer_1" xmlns="http://www.w3.org/2000/svg" xmlns:xlink="http://www.w3.org/1999/xlink" x="0px" y="0px"
	 viewBox="0 0 360 360.267" style="enable-background:new 0 0 360 360.267;" xml:space="preserve">
<g>
	<g>
		<polygon style="fill:#FFFFFF;" points="66.138,278.343 68.721,278.343 70.79,269.931 51.06,269.931 42.724,283.449 
			41.199,269.931 21.324,269.931 19.262,278.343 21.836,278.343 17.343,296.561 14.77,296.561 12.693,304.961 25.524,304.961 
			27.589,296.561 25.021,296.561 29.816,277.097 29.91,277.097 32.761,304.961 37.717,304.961 54.397,277.097 54.498,277.097 
			49.704,296.561 47.124,296.561 45.048,304.961 62.152,304.961 64.223,296.561 61.651,296.561 		"/>
		<path style="fill:#FFFFFF;" d="M66.657,310.712H5.347l4.921-19.901h2.57l1.656-6.717h-2.564l4.883-19.914h29.524l0.234,2.073
			l1.278-2.073h30.276l-4.898,19.914h-2.584l-1.655,6.717h2.574L66.657,310.712z M54.974,299.211h0.102l5.795-23.53h-0.102
			L54.974,299.211z M35.546,275.681l1.897,18.542l0.597-0.997l-1.979-17.544H35.546z"/>
	</g>
	<g>
		<polygon style="fill:#FFFFFF;" points="86.74,278.343 89.804,278.343 91.869,269.931 72.976,269.931 70.895,278.343 
			73.964,278.343 69.479,296.561 66.414,296.561 64.341,304.961 83.24,304.961 85.315,296.561 82.248,296.561 		"/>
		<path style="fill:#FFFFFF;" d="M87.742,310.712H56.998l4.912-19.901h3.062l1.654-6.717h-3.078l4.928-19.914h30.726l-4.888,19.914
			h-3.069l-1.656,6.717h3.071L87.742,310.712z M74.749,299.211h0.924l5.801-23.53h-0.932L74.749,299.211z"/>
	</g>
	<g>
		<polygon style="fill:#FFFFFF;" points="120.853,290.928 112.929,290.928 111.545,296.561 103.775,296.561 108.262,278.343 
			111.369,278.343 113.447,269.931 94.601,269.931 92.516,278.343 95.488,278.343 90.995,296.561 88.033,296.561 85.955,304.961 
			117.396,304.961 		"/>
		<path style="fill:#FFFFFF;" d="M121.902,310.712H78.61l4.921-19.901h2.96l1.656-6.717h-2.982l4.938-19.914h30.687l-4.918,19.914
			h-3.104l-0.267,1.084h15.691L121.902,310.712z M96.264,299.211H97.2l5.795-23.53h-0.927L96.264,299.211z"/>
	</g>
	<g>
		<polygon style="fill:#FFFFFF;" points="138.807,269.931 121.71,269.931 119.639,278.343 121.928,278.343 124.56,305.27 
			135.003,305.27 142.755,291.755 142.859,291.755 143.945,305.27 154.144,305.27 170.216,278.343 172.448,278.343 174.517,269.931 
			161.208,269.931 159.139,278.343 161.514,278.343 153.917,293.404 153.817,293.404 152.621,278.343 155.057,278.343 
			157.128,269.931 142.746,269.931 140.677,278.343 143.155,278.343 134.532,293.404 134.43,293.404 134.318,278.343 
			136.738,278.343 		"/>
		<path style="fill:#FFFFFF;" d="M157.409,311.02h-18.771l-0.037-0.464l-0.267,0.464h-18.99l-2.632-26.926h-4.411l4.902-19.914
			h64.65l-4.897,19.914h-3.475L157.409,311.02z M149.252,299.519h1.627l0.217-0.364h-1.874L149.252,299.519z M129.776,299.519h1.896
			l0.209-0.364h-2.141L129.776,299.519z M127.446,275.681l1.192,12.192l-0.09-12.192H127.446z M145.395,286.005h2.065l-0.252-3.169
			L145.395,286.005z"/>
	</g>
	<g>
		<polygon style="fill:#FFFFFF;" points="265.701,284.945 274.028,278.343 276.607,278.343 278.68,269.931 262.403,269.931 
			260.338,278.343 263.05,278.343 252.611,286.594 257.4,296.561 255.841,296.561 253.776,304.961 270.82,304.961 272.902,296.561 
			271.253,296.561 		"/>
		<path style="fill:#FFFFFF;" d="M275.32,310.712h-28.879l3.85-15.667l-4.856-10.109l9.137-7.221l3.322-13.534h28.126l-4.907,19.914
			h-5.081l-3.164,2.508l2.011,4.208h5.372L275.32,310.712z M265.053,299.211h1.092l-5.544-11.603l-0.814,0.643L265.053,299.211z"/>
	</g>
	<g>
		<polygon style="fill:#FFFFFF;" points="256.881,278.343 258.959,269.931 241.024,269.931 238.955,278.343 241.478,278.343 
			236.993,296.561 234.474,296.561 232.393,304.961 250.323,304.961 252.384,296.561 249.762,296.561 254.256,278.343 		"/>
		<path style="fill:#FFFFFF;" d="M254.835,310.712h-29.791l4.931-19.901h2.513l1.653-6.717h-2.521l4.896-19.914h29.787
			l-4.918,19.914h-2.625l-1.657,6.717h2.613L254.835,310.712z M242.263,299.211h0.922l5.804-23.53h-0.934L242.263,299.211z"/>
	</g>
	<g>
		<polygon style="fill:#FFFFFF;" points="301.447,291.353 298.17,296.561 290.674,296.561 292.087,290.822 298.594,290.822 
			300.346,283.702 293.844,283.702 295.167,278.343 302.646,278.343 303.182,283.274 310.027,283.274 313.368,269.931 
			281.884,269.931 279.811,278.343 282.39,278.343 277.905,296.561 275.322,296.561 273.248,304.961 304.724,304.961 
			308.348,291.353 		"/>
		<path style="fill:#FFFFFF;" d="M309.143,310.712h-43.236l4.912-19.901h2.58l1.653-6.717h-2.58l4.907-19.914h43.358l-5.364,21.422
			h0.458L309.143,310.712z M283.174,299.211h0.924l2.403-9.758h-0.001l3.4-13.772h-0.933L283.174,299.211z"/>
	</g>
	<g>
		<polygon style="fill:#FFFFFF;" points="336.559,278.343 337.098,283.274 343.944,283.274 347.284,269.931 315.801,269.931 
			313.732,278.343 316.298,278.343 311.817,296.561 309.243,296.561 307.166,304.961 338.649,304.961 342.277,291.353 
			335.368,291.353 332.069,296.561 324.591,296.561 326.004,290.822 332.515,290.822 334.263,283.702 327.76,283.702 
			329.08,278.343 		"/>
		<path style="fill:#FFFFFF;" d="M343.067,310.712H299.82l4.921-19.901h2.569l1.651-6.717h-2.566l4.899-19.914h43.359l-5.364,21.422
			h0.473L343.067,310.712z M317.088,299.211h0.928l5.797-23.53h-0.938L317.088,299.211z"/>
	</g>
	<g>
		<path style="fill:#FFFFFF;" d="M120.643,315.944H99.314l-1.889,9.111h2.611l-4.089,19.73h-2.626l-1.883,9.115h20.678
			c10.617,0,14.547-5.535,15.62-10.679c0.94-4.523-0.887-8.323-4.607-9.565l0.017-0.103c3.65-0.951,6.293-3.915,7.102-7.77
			C131.279,320.806,129.583,315.944,120.643,315.944z M115.396,341.881c-0.55,2.681-2.09,3.683-5.363,3.683h-2.613l1.557-7.488h3.14
			C115.171,338.077,115.869,339.593,115.396,341.881z M117.887,327.736c-0.491,2.407-1.819,3.47-4.744,3.47h-2.746l1.437-6.931
			h2.876C117.585,324.275,118.345,325.501,117.887,327.736z"/>
		<path style="fill:#FFFFFF;" d="M112.117,359.651H84.379l4.258-20.616h2.629l1.705-8.229h-2.612l4.275-20.612h26.01
			c5.834,0,10.174,1.697,12.899,5.043c1.732,2.128,3.544,5.887,2.338,11.712c-0.6,2.859-1.888,5.409-3.683,7.459
			c1.46,2.844,1.93,6.327,1.17,9.983C131.374,353.948,123.43,359.651,112.117,359.651z M121.136,339.053
			c0.202,1.121,0.212,2.446-0.108,3.993c-0.172,0.841-0.467,1.837-0.968,2.843c1.287-1.166,1.789-2.601,2.048-3.842
			c0.121-0.583,0.424-2.528-0.799-2.936L121.136,339.053z M122.191,321.769c0.788,1.042,1.551,2.617,1.566,4.819
			c0.406-0.543,0.701-1.214,0.863-1.987c0.259-1.252,0.111-1.97,0.002-2.103C124.49,322.335,123.79,321.935,122.191,321.769z"/>
	</g>
	<g>
		<path style="fill:#FFFFFF;" d="M167.849,315.944h-12.527l-2.092,9.111h1.66l-3.14,13.69c-1.204,5.201-2.373,6.884-4.783,6.884
			c-3.292,0-2.641-3.697-1.964-6.601l3.211-13.973h1.61l2.101-9.111h-17.097l-2.095,9.111h2.553l-3.168,13.75
			c-2.624,11.403,1.457,15.712,10.494,15.712c9.186,0,14.984-5.316,17.145-14.705l3.397-14.757h2.598L167.849,315.944z"/>
		<path style="fill:#FFFFFF;" d="M142.613,360.267c-6.338,0-11.026-1.852-13.935-5.506c-3.201-4.021-3.909-9.662-2.164-17.246
			l1.545-6.71h-2.55l4.739-20.612h44.824l-4.743,20.612h-2.598l-2.37,10.296C162.558,353.282,154.267,360.267,142.613,360.267z
			 M141.961,321.695l-4.238,18.401c-0.995,4.324-0.676,6.711-0.046,7.503c0.425,0.534,1.524,0.911,3.063,1.076
			c-0.072-0.083-0.143-0.169-0.212-0.255c-2.796-3.523-1.709-8.189-1.125-10.695l3.683-16.029H141.961z"/>
	</g>
	<g>
		<path style="fill:#FFFFFF;" d="M181.593,345.628c-3.63,0-4.566-3.409-2.949-10.79c1.698-7.821,4.3-10.563,7.423-10.563
			c2.48,0,4.065,1.902,4.202,5.53h7.873l3.024-13.861h-7.595l-0.544,2.523c-1.777-2.133-4.789-3.307-8.275-3.307
			c-8.989,0-17.378,8.331-19.876,19.738c-1.731,7.989-0.683,19.618,13.529,19.618c9.691,0,15.205-6.267,18.348-13.87l-7.436-3.521
			C187.228,342.887,184.726,345.628,181.593,345.628z"/>
		<path style="fill:#FFFFFF;" d="M178.406,360.267c-8.627,0-13.333-3.589-15.762-6.6c-5.293-6.562-4.394-15.338-3.388-19.986
			c3.081-14.069,13.802-24.271,25.496-24.271c1.937,0,3.793,0.27,5.506,0.784h18.048l-5.532,25.362h-3.334l4.719,2.235l-2.09,5.054
			C196.114,357.245,185.914,360.267,178.406,360.267z M175.822,325.459c-2.464,2.706-4.4,6.433-5.327,10.67
			c-0.738,3.405-0.837,7.913,1.102,10.318c0.676,0.837,1.662,1.451,2.948,1.836c-0.052-0.062-0.104-0.124-0.155-0.187
			c-3.161-3.929-2.389-9.806-1.363-14.487C173.729,330.375,174.662,327.657,175.822,325.459z"/>
	</g>
	<g>
		<polygon style="fill:#FFFFFF;" points="226.756,332.212 234.214,325.055 236.509,325.055 238.377,315.944 223.8,315.944 
			221.941,325.055 224.374,325.055 215.023,334.003 219.319,344.785 217.923,344.785 216.06,353.9 231.33,353.9 233.19,344.785 
			231.716,344.785 		"/>
		<path style="fill:#FFFFFF;" d="M236.026,359.651h-27.01l3.403-16.65l-4.173-10.471l7.831-7.493l3.029-14.843h26.322l-4.226,20.612
			h-4.673l-3.006,2.885l2.108,5.344h4.601L236.026,359.651z M221.801,335.477l4.907,12.313l0.004-0.021l-4.866-12.334
			L221.801,335.477z"/>
	</g>
	<g>
		<polygon style="fill:#FFFFFF;" points="216.501,325.055 218.848,325.055 220.707,315.944 204.653,315.944 202.794,325.055 
			205.055,325.055 201.038,344.785 198.772,344.785 196.925,353.9 212.98,353.9 214.831,344.785 212.483,344.785 		"/>
		<polygon style="fill:#FFFFFF;" points="217.681,359.651 189.892,359.651 194.07,339.035 196.34,339.035 198.016,330.806 
			195.751,330.806 199.957,310.194 227.75,310.194 223.544,330.806 221.199,330.806 219.523,339.035 221.865,339.035 		"/>
	</g>
	<g>
		<path style="fill:#FFFFFF;" d="M260.419,318.296c-1.598-1.846-4.057-2.853-6.995-2.853c-6.455,0-11.899,4.523-13.497,11.24
			c-0.724,3.016-0.36,5.53,1.264,7.933c2.733,4.082,8.575,5.14,10.229,7.603c0.488,0.724,0.557,1.281,0.386,2.005
			c-0.36,1.512-1.654,2.467-3.324,2.467c-2.596,0-3.872-1.512-4.104-4.977h-7.775l-2.9,12.187h7.766l0.613-2.519
			c1.876,1.902,4.712,3.015,7.556,3.015c6.455,0,12.516-4.977,14.067-11.509c0.882-3.692-0.064-6.764-1.045-8.216
			c-2.956-4.416-9.886-6.652-11.06-8.383c-0.27-0.394-0.352-1.062-0.206-1.679c0.343-1.452,1.525-2.347,3.093-2.347
			c2.296,0,3.517,1.294,3.881,3.967l0.034,0.505h7.783l2.566-10.79h-7.779L260.419,318.296z"/>
		<path style="fill:#FFFFFF;" d="M249.638,360.147c-1.395,0-2.77-0.17-4.092-0.496h-19.122l5.637-23.688h3.273
			c-1.582-3.209-1.922-6.777-0.998-10.623c2.225-9.355,9.898-15.648,19.089-15.648c1.453,0,2.847,0.17,4.16,0.501h18.445
			l-5.301,22.291h-2.683c1.437,2.706,2.4,6.942,1.252,11.739C267.144,353.298,258.691,360.147,249.638,360.147z M245.781,327.1
			c-0.098,0.296-0.185,0.601-0.259,0.914c-0.408,1.701-0.162,2.5,0.434,3.383c0.747,1.117,2.503,2.049,4.202,2.95
			c2.216,1.177,4.509,2.393,6.036,4.667c0.853,1.266,1.33,2.61,1.427,4.015c0.204-0.472,0.368-0.964,0.488-1.468
			c0.544-2.276-0.218-3.673-0.226-3.686c-1.067-1.595-3.79-3.143-5.778-4.274c-2.27-1.29-4.062-2.31-5.264-4.083
			C246.345,328.795,245.989,327.974,245.781,327.1z"/>
	</g>
	<g>
		<path style="fill:#FFFFFF;" d="M120.497,81.117c2.435,1.898,0.912,4.502,0.263,6.781c-1.454,1.296,0,4.491-2.594,4.658
			c-9.496-2.988-20.548-3.519-29.432,0.535c-2.058,1.572-6.181,2.384-5.206,5.701c2.542,2.971,5.312,6.07,8.351,8.61
			c9.595,6.883,21.139,5.967,31.214,0.763c2.011-0.383,3.315-2.339,5.483-2.339c4.277,3.476,7.036,7.329,10.398,11.445
			c9.867,13.495,17.725,29.432,14.313,46.821l0.088-0.032l-0.053,0.456l-19.038,13.011c-3.405,2.988-6.727,6.716-5.682,11.437
			c4.063,7.967,8.019,15.827,11.715,23.409l7.788-0.48c0.332-0.814,0.552-1.525-0.523-1.85c-0.178-2.75-1.853-4.232-2.613-6.768
			c-1.626-5.046-5.149-9.603-4.93-15.069c3.305-3.911,8.19-6.187,12.735-8.083c2.442,2.386,1.848,6.399,1.576,9.659
			c-1.409,8.331-3.146,17.172-5.965,24.442l-3.416,7.256c-0.469,0.84-1.898,3.196-2.666,4.669l2.771,0.043
			c-0.589,0.677-1.159,1.388-1.703,2.12c-0.088,0.107-0.174,0.219-0.251,0.33c-0.456,0.617-0.887,1.246-1.309,1.893
			c-0.122,0.188-0.238,0.377-0.36,0.565c-0.366,0.583-0.713,1.182-1.045,1.79c-0.129,0.236-0.263,0.463-0.383,0.694
			c-0.379,0.728-0.741,1.482-1.082,2.245c-0.034,0.077-0.086,0.158-0.114,0.236c-0.015,0.038-0.021,0.081-0.043,0.124
			c-0.416,0.968-0.773,1.953-1.105,2.964c-0.092,0.27-0.171,0.536-0.263,0.814c-0.312,1.054-0.604,2.121-0.818,3.208
			c-1.266,1.336-2.829,1.255-4.427,1.024c-0.531-0.068-1.064-0.154-1.595-0.214c-6.074-2.005-6.288-8.73-6.989-14.088h-0.004l0,0
			c-2.283,3.906-2.446,8.888-0.801,13.009c0.056,0.214,0.107,0.416,0.15,0.6c0.015,0.064,0.028,0.116,0.043,0.171
			c0.041,0.197,0.068,0.385,0.084,0.548v0.017c0,0.167-0.03,0.313-0.064,0.437c-0.019,0.043-0.034,0.081-0.054,0.112
			c-0.058,0.133-0.135,0.253-0.272,0.351c-0.041,0.034-0.114,0.068-0.165,0.099c-0.201,0.107-0.435,0.201-0.754,0.27
			c-0.867-0.651-1.898-1.636-2.33-2.818l0,0l0,0l-0.279,6.716c-0.221,2.005,1.409,3.47,1.298,4.986
			c1.735,3.847,4.819,6.717,9.102,7.261c3.686,0.381,7.316-2,9.374-5.196c3.915-0.115,3.849,3.95,6.785,5.196
			c2.975,0.707,6.224,1.037,9.1-0.266l15.607-9.111c0.199,0,0.407-0.026,0.632-0.056c0.071-0.021,0.15-0.03,0.231-0.051
			c0.165-0.034,0.343-0.06,0.518-0.103c0.161-0.039,0.304-0.068,0.463-0.099c0.135-0.038,0.259-0.064,0.396-0.086
			c0.156-0.03,0.312-0.051,0.469-0.073c0.079-0.013,0.169-0.03,0.251-0.038c0.221-0.026,0.45-0.026,0.659-0.008
			c0.062,0.008,0.12,0.026,0.187,0.034c0.152,0.021,0.302,0.06,0.447,0.116c0.064,0.021,0.137,0.06,0.202,0.094
			c0.139,0.077,0.272,0.172,0.394,0.278c0.043,0.043,0.096,0.086,0.137,0.137c0.163,0.18,0.313,0.394,0.441,0.672
			c0.081,0.163,0.146,0.313,0.188,0.489c0.3,1.143-0.358,2.274-0.409,3.405c-0.223,0.317-0.392,0.626-0.529,0.917
			c-0.058,0.103-0.077,0.189-0.107,0.283c-0.083,0.197-0.159,0.398-0.21,0.596c-0.024,0.107-0.043,0.214-0.051,0.317
			c-0.034,0.171-0.056,0.355-0.056,0.527c-0.002,0.103,0,0.214,0.009,0.317c0.006,0.158,0.026,0.317,0.056,0.484
			c0.019,0.099,0.043,0.21,0.068,0.313c0.037,0.154,0.101,0.312,0.154,0.462c0.038,0.103,0.075,0.206,0.122,0.296
			c0.081,0.172,0.167,0.339,0.261,0.506c0.049,0.073,0.086,0.15,0.131,0.227c0.156,0.24,0.319,0.48,0.501,0.715
			c0.017,0.021,0.041,0.038,0.051,0.064c0.298,0.373,0.627,0.737,0.972,1.097c0.075,0.068,0.146,0.154,0.227,0.236
			c0.34,0.355,0.7,0.715,1.064,1.067c0.45,0.424,0.887,0.857,1.317,1.294c0.034,0.043,0.068,0.077,0.103,0.111
			c0.388,0.403,0.752,0.806,1.075,1.225c0.011,0.017,0.034,0.021,0.034,0.051c0.124,0.137,0.229,0.296,0.326,0.446
			c0.09,0.12,0.184,0.244,0.255,0.368c0.178,0.27,0.325,0.548,0.449,0.818l0,0l0,0h0.493c0.052,0.073,0.103,0.137,0.163,0.206
			h-5.016l-2.075,8.413h2.679l-10.709,18.218H164.9l-2.077,8.4h13.071l1.893-7.698h-2.72l2.489-4.369h8.447l0.184,4.369h-2.857
			l-1.908,7.698h17.256l2.069-8.4h-2.433l-0.861-8.67c0.818,0.946,1.645,1.898,2.48,2.87c0.446,0.522,0.909,1.054,1.362,1.585
			c0.579,0.685,1.183,1.414,1.782,2.125c-0.129,1.114-0.159,2.133-0.103,3.058l-0.3,0.159c0,0,0.18,0.416,0.445,1.041
			c0.257,1.495,0.801,2.711,1.628,3.688c0.686,1.499,1.285,2.737,1.341,2.527c0.013-0.03,0.03-0.052,0.06-0.064
			c0.612-0.304,5.2,0.891,5.2,0.891l1.092-0.291c0.527,0.043,1.071,0.051,1.636,0.051c9.09,0,14.821-4.9,16.954-13.566l3.358-13.622
			h2.578l2.065-8.413h-12.379l-2.082,8.413h1.654l-3.11,12.636c-0.882,3.577-1.747,5.342-3.131,6.01l-0.158-0.266l-3.829-1.242
			c-0.236-1.216,0.094-2.818,0.445-4.245l3.178-12.893h1.611l2.06-8.413h-16.903l-1.769,7.162l-3.658-6.018l0.27-1.144h-0.972
			l-5.671-9.299c-0.488-2.707,2.219-4.72,3.358-7.046c5.371-6.995,11.004-14.204,10.191-23.418
			c-0.758-2.707-3.902-3.632-6.019-3.902l0,0l0,0c-2.236,0.385-5.14,0.056-6.25,2.116c3.748,5.684-0.526,12.028-2.861,17.129
			c-0.544,1.739,0.66,4.378-0.484,5.74c-0.06,0.12-0.017,0.231,0.064,0.334c0.047,0.077,0.107,0.145,0.159,0.214l-0.497,0.471
			c0.437,2.981-2.75,4.566-2.879,7.316c2.532,3.427,5.012,6.888,7.479,10.345h-9.587c-1.576-2.24-3.153-4.489-4.652-6.691
			c-0.978-2.009-3.412-3.363-2.867-6.027l6.765-8.023c3.093-5.856,8.841-10.893,7.53-18.205c-0.693-1.581-1.837-2.651-3.358-3.414
			c-1.161-0.146-2.348-0.231-3.525-0.248c-1.092-0.017-2.189,0.017-3.277,0.077c-0.304,0.026-0.616,0.043-0.916,0.06
			c-0.839,0.068-1.654,0.137-2.478,0.214c-0.283,0.03-0.561,0.064-0.846,0.094c-1.015,0.103-2.017,0.218-2.994,0.343
			c-7.537,1.144-13.656,5.637-20.539,8.284c-0.152-0.124-0.313-0.249-0.431-0.394c-0.068-0.094-0.122-0.193-0.143-0.3
			c-0.021-0.103-0.011-0.206,0.026-0.33c0.79-0.784,1.624-1.495,2.493-2.163c0.321-0.24,0.655-0.445,0.99-0.677
			c0.565-0.398,1.128-0.797,1.724-1.152c0.398-0.236,0.814-0.446,1.229-0.664c0.546-0.304,1.088-0.6,1.651-0.865
			c0.452-0.214,0.902-0.403,1.351-0.595c0.555-0.244,1.107-0.484,1.67-0.707c0.461-0.18,0.925-0.339,1.381-0.506
			c0.57-0.201,1.138-0.411,1.703-0.591c0.467-0.154,0.936-0.3,1.396-0.441c0.595-0.184,1.18-0.36,1.776-0.527
			c0.428-0.12,0.863-0.248,1.289-0.369c0.765-0.205,1.521-0.42,2.262-0.612c0.251-0.068,0.501-0.133,0.752-0.201
			c0.206-0.051,0.396-0.103,0.595-0.159c0.595-0.004,1.182-0.017,1.78-0.03l13.497,0.27c0.278-5.795,5.371-10.576,8.087-15.339
			l0.745-0.27c5.157-8.083,11.163-16.474,12.534-26.767c1.135-6.346-0.446-14.375-4.189-19.79c2.994-4.112,8.083-5.256,11.976-8.355
			c10.739-7.374,23.701-9.918,34.585-16.363c-0.968-1.731-2.605-1.848-3.624-3.365c0.047-0.321,0.214-1.292-0.549-1.566
			l-35.107,11.163c-5.384,1.193-10.1,3.909-15.626,4.725l-0.403-0.313l0.373-0.116l-6.223-4.708
			c-3.089-4.335-8.413-7.322-12.204-11.169c-1.242-1.14-3.53-1.354-3.675-3.414c3.842-5.53,9.907-8.346,15.604-11.437
			c7.753-1.788,14.684-5.477,21.632-9.1c4.228-3.373,11.205-5.526,9.861-11.983c-0.93-1.469-2.716-1.949-4.395-2.067
			c-14.795,3.039-32.143,2.56-41.408-9.64c-2.112-3.579-6.066-5.269-7.803-8.839c7.803-2.709,16.416-8.505,20.058-16.374
			c1.405-3.302,3.632-6.605,3.131-10.398c-2.968-2.33-8.67-1.086-12.247-1.032c-7.577,0.437-13.602,6.397-18.211,12.467
			c-2.11,2.606-2.06,6.072-4.442,8.567c-0.645-0.492-1.784,0.043-2.328-0.758c0.653-2.722,2.598-5.097,4.433-7.048
			c5.093-9.692,13.23-21.84,7.004-33.279c-1.467-1.249-4.286-0.923-5.963-0.264c-2.716-4.722-5.915-10.036-9.113-14.534
			c-1.938-2.874-4.446-6.188-7.532-7.805c-2-0.218-4.705-1.262-6.016,0.76c-0.756,1.032-0.81,2.326-0.756,3.632
			c1.236,4.009,5.753,7.258,6.506,10.949c-3.142-0.595-6.614-1.142-9.858-0.544c-1.469,1.086-2.45,2.763-2.394,4.667
			c2.718,2.27,2.225,6.01,4.72,8.07c6.175,0.814,13.333,3.686,15.33,10.133c1.365,5.689,0.339,11.974-4.172,15.605
			c-0.317-1.077,0.056-2.491,0.542-3.63c-0.319-1.561-0.223-3.453-2.097-4.166c-1.148-0.379-2.825-0.379-3.911,0.266
			c-2.067,1.36-2.707,3.746-3.091,6.02c-1.683,3.789,2.821,8.893-2.109,11.711c-3.153,1.514-7.595,3.791-10.897,1.03
			c-0.495-3.144-2.504-5.909-4.718-8.079c-2.324-2.063-4.93-2.063-8.029-1.583c-0.968,0.501-1.673,1.463-2.103,2.341
			c-1.251,2.928,0.921,5.256,2.589,7.042l-0.486,0.548c-6.226-2.608-12.133-7.753-14.093-14.309
			c-4.059-12.364,12.21-12.951,13.833-22.664c-0.169-2.276-3.581-1.516-3.632-3.9c0.377-1.737,0.212-3.193-1.568-4.176
			c-4.937-0.754-7.967,4.718-10.957,7.811h-0.495c0.053-3.043,1.473-6.181,2.608-9.1c-0.431-1.311,0.975-4.294-1.304-4.934
			c-2.384-0.923-4.539,0.319-6.282,1.842c-6.123,7.798-6.449,18.699-6.723,28.344c-1.034,0.223-0.81-0.974-1.574-1.3
			c-1.411-0.535-3.084-0.283-4.172,0.758c-1.084,1.844-0.214,4.877,0.27,7.042C88.568,73.145,106.075,77.754,120.497,81.117z
			 M179.941,288.504l5.406-9.694h0.094l0.382,9.694H179.941z M206.838,278.343l-0.416,1.701l-1.032-1.701H206.838z M196.497,278.343
			h2.664l0.951-3.842c1.868,2.617,3.731,5.221,5.607,7.779c0.038,0.051,0.073,0.103,0.116,0.154l-2.125,8.597
			c-0.184,0.732-0.321,1.427-0.437,2.095c-2.014-3.101-4.087-6.177-6.224-9.235L196.497,278.343z"/>
		<path style="fill:#FFFFFF;" d="M211.366,311.717l-1.466-0.381c-1.037-0.269-2.26-0.542-3.009-0.677
			c-0.27,0.039-0.545,0.059-0.824,0.059c-1.087,0-1.977-0.24-2.723-0.65l-0.159,0.643h-47.707l4.921-19.901h3.686l3.999-6.804
			l4.1-16.624c-0.239-0.268-0.458-0.527-0.66-0.781l-0.543-0.731c-0.116-0.167-0.229-0.335-0.338-0.503l-0.135-0.219
			c-0.019-0.031-0.037-0.063-0.054-0.094l-0.129-0.224c-0.148-0.263-0.285-0.526-0.414-0.794c-0.171-0.344-0.277-0.629-0.337-0.79
			l-0.04-0.11c-0.09-0.246-0.227-0.616-0.335-1.077c-0.031-0.119-0.079-0.341-0.117-0.537c-0.084-0.467-0.13-0.852-0.151-1.23
			c-0.01-0.158-0.017-0.321-0.019-0.482l-11.738,6.817c-2.049,0.928-4.34,1.398-6.811,1.398c-1.831,0-3.791-0.254-5.991-0.777
			l-0.471-0.112l-0.446-0.189c-1.723-0.731-2.941-1.829-3.827-2.859c-3.138,2.435-6.975,3.669-10.678,3.286l-0.132-0.015
			c-5.959-0.756-10.923-4.62-13.62-10.601l-0.6-1.33l0.049-0.675c-0.01-0.022-0.02-0.044-0.03-0.065
			c-0.538-1.175-1.428-3.117-1.214-5.667l0.273-6.567l2.814-0.439c-1.208-5.14-0.471-10.571,2.13-15.019l1.665-2.849h8.348
			l0.658,5.005c0.067,0.512,0.13,1.036,0.193,1.568c0.544,4.55,1.034,6.781,2.426,7.595l0.142-0.445
			c0.06-0.19,0.121-0.379,0.185-0.57c0.374-1.139,0.766-2.198,1.18-3.179c0.004-0.01,0.008-0.021,0.011-0.032c0,0,0,0,0,0
			c0-0.001,0.001-0.003,0.001-0.004c0.006-0.016,0.012-0.032,0.018-0.049l0,0c0.001-0.002,0.001-0.004,0.002-0.006
			c0.005-0.015,0.011-0.029,0.016-0.044c0.079-0.203,0.174-0.414,0.278-0.621c0.244-0.543,0.493-1.072,0.746-1.584l-1.602-0.025
			l4.314-8.267c0.581-1.113,1.414-2.535,2.084-3.677c0.227-0.387,0.427-0.727,0.57-0.977l0.326-0.692l-3.351,0.207l-1.685-3.456
			c-3.287-6.742-6.995-14.151-11.669-23.317l-0.333-0.653l-0.158-0.716c-1.932-8.725,4.923-14.739,7.504-17.003l0.548-0.425
			l16.909-11.555c1.839-12.396-2.491-25.304-13.527-40.436c-0.575-0.706-1.134-1.405-1.686-2.095
			c-1.792-2.24-3.411-4.264-5.271-6.127c-0.651,0.367-1.427,0.741-2.329,1.012c-5.892,2.94-12.078,4.49-17.931,4.49
			c-6.851,0-13.134-2.016-18.677-5.992l-0.336-0.26c-3.355-2.805-6.324-6.12-9.032-9.283l-0.801-0.936l-0.347-1.183
			c-2.044-6.958,4.101-10.201,6.121-11.267c0.374-0.197,0.938-0.495,1.114-0.626l0.489-0.364l0.613-0.297
			c4.984-2.274,10.662-3.427,16.878-3.427c3.901,0,7.981,0.473,12.008,1.382c0.005-0.01,0.01-0.02,0.016-0.03
			c-13.643-3.321-31.553-9.049-37.673-27.582l-0.151-0.549l-0.143-0.623c-0.642-2.767-1.612-6.948,0.528-10.588l0.404-0.688
			l0.577-0.552c1.191-1.139,2.649-1.935,4.243-2.333c0.504-8.426,1.972-17.597,7.679-24.866l0.333-0.424l0.406-0.355
			c2.756-2.408,5.506-3.578,8.406-3.578c1.188,0,2.364,0.207,3.499,0.616c1.872,0.595,4.49,2.132,5.099,6.082
			c1.261-0.256,2.679-0.305,4.077-0.091l1.014,0.155l0.898,0.496c1.424,0.787,4.255,2.843,4.651,6.893
			c2.147,1.415,3.323,3.357,3.504,5.791l0.052,0.691l-0.114,0.683c-1.076,6.439-5.811,9.938-9.616,12.75
			c-5.053,3.735-5.301,4.508-4.426,7.173l0.046,0.146c0.438,1.466,1.205,2.906,2.237,4.255c0.828-1.205,2.021-2.467,3.7-3.337
			l0.836-0.433l0.93-0.144c1.451-0.224,2.644-0.329,3.755-0.329c3.54,0,6.474,1.078,8.971,3.294l0.207,0.193
			c2.462,2.412,4.242,4.947,5.323,7.572c0.869-0.243,1.933-0.72,2.839-1.149c-0.051-0.346-0.122-0.737-0.177-1.046
			c-0.357-1.986-0.835-4.644,0.146-7.47c0.414-2.305,1.445-6.618,5.5-9.287l0.225-0.141c1.464-0.87,3.243-1.329,5.144-1.329
			c0.664,0,1.329,0.057,1.973,0.168c-0.028-0.144-0.058-0.286-0.089-0.426c-1.226-3.539-6.222-5.405-10.537-5.974l-1.637-0.216
			l-1.273-1.052c-2.443-2.017-3.342-4.53-3.998-6.364c-0.21-0.588-0.562-1.572-0.748-1.727l-1.985-1.658l-0.077-2.586
			c-0.108-3.657,1.658-7.194,4.724-9.461l1.07-0.791l1.308-0.241c0.068-0.013,0.137-0.025,0.207-0.037
			c-0.519-0.93-0.974-1.929-1.31-3.018l-0.22-0.713l-0.031-0.746c-0.054-1.318-0.179-4.378,1.771-7.138
			C138.31,2.256,140.501,0,144.615,0c1.224,0,2.326,0.197,3.212,0.355c0.303,0.054,0.597,0.112,0.873,0.141l1.082,0.118l0.964,0.505
			c4.225,2.214,7.343,6.296,9.591,9.624c2.219,3.125,4.637,6.901,7.348,11.474c2.665-0.009,4.99,0.739,6.728,2.219l0.813,0.692
			l0.51,0.938c3.376,6.203,3.502,12.43,2.146,18.284c1.971-0.7,3.974-1.106,6.017-1.224l0.245-0.009
			c0.643-0.01,1.498-0.079,2.404-0.153c1.311-0.107,2.798-0.227,4.32-0.227c2.489,0,6.146,0.273,9.159,2.639l1.843,1.447
			l0.307,2.324c0.616,4.665-1.196,8.443-2.652,11.479c-0.309,0.644-0.618,1.283-0.89,1.922l-0.073,0.164
			c-3.237,6.994-9.43,12.345-15.715,15.901c1.031,1.011,2.089,2.195,2.989,3.637c4.522,5.785,11.995,8.717,22.219,8.717
			c4.129,0,8.599-0.488,13.284-1.451l0.773-0.159l0.787,0.055c5.069,0.356,7.611,2.768,8.852,4.728l0.557,0.881l0.213,1.021
			c1.84,8.834-5.011,13.167-9.105,15.757c-1.052,0.666-2.046,1.294-2.799,1.894l-0.434,0.347l-1.128,0.589
			c-6.728,3.511-13.678,7.138-21.587,9.088c-0.403,0.217-0.807,0.432-1.212,0.648c-3.026,1.615-5.944,3.171-8.341,5.095
			c1.205,1.169,2.649,2.318,4.17,3.527c2.693,2.142,5.47,4.352,7.709,7.237l3.926,2.97c1.605-0.444,3.228-1.042,4.913-1.661
			c2.332-0.858,4.739-1.744,7.412-2.359l36.728-11.677l1.831,0.657c1.603,0.576,3.284,1.916,4.018,4.06
			c0.957,0.663,2.235,1.698,3.23,3.477l2.737,4.897l-4.826,2.858c-5.319,3.149-10.99,5.393-16.473,7.563
			c-6.34,2.508-12.331,4.879-17.637,8.49c-1.864,1.453-3.827,2.507-5.566,3.441c-0.927,0.498-1.801,0.967-2.581,1.452
			c2.714,5.968,3.741,13.16,2.638,19.497c-1.431,10.49-6.953,19.035-11.827,26.579c-0.519,0.803-1.036,1.602-1.543,2.398
			l-1.051,1.646l-0.705,0.256c-0.662,1.006-1.363,1.981-2.049,2.935c-0.698,0.972-1.406,1.955-2.032,2.925
			c0.072-0.01,0.139-0.02,0.2-0.03l0.849-0.146l0.855,0.109c5.65,0.72,9.597,3.656,10.829,8.055l0.144,0.514l0.047,0.531
			c0.994,11.265-5.383,19.647-11.06,27.038c-0.539,0.972-1.147,1.792-1.695,2.529c-0.106,0.142-0.229,0.309-0.352,0.477l2.729,4.475
			h42.879l-4.888,19.914h-2.583l-2.28,9.247c-2.806,11.4-11.021,17.94-22.538,17.94c-0.316,0-0.661-0.002-1.027-0.013
			L211.366,311.717z M209.733,299.492c0.411,0.082,0.826,0.172,1.233,0.265l-0.616-3.181c-0.444-2.293-0.019-4.583,0.507-6.716
			l3.496-14.179h-0.943l-1.299,5.306l0.004,0.005l-3.05,12.439c-0.043,0.213-0.083,0.436-0.124,0.673l-0.151,1.024
			c-0.087,0.754-0.112,1.446-0.075,2.059l0.072,0.566c0.077,0.446,0.195,0.766,0.351,0.951l0.511,0.604L209.733,299.492z
			 M192.024,299.211h0.774l-1.32-13.254L192.024,299.211z M148.119,256.292c1.79,0.331,3.126,0.312,4.103-0.054l16.631-9.709h1.318
			l0.263-0.051c0.193-0.044,0.365-0.082,0.54-0.117c0.227-0.056,0.457-0.103,0.695-0.143c0.194-0.035,0.387-0.064,0.581-0.092
			c0.179-0.03,0.351-0.055,0.512-0.072c0.51-0.059,1.169-0.066,1.737-0.021l0.715,0.102c0.504,0.086,0.968,0.209,1.415,0.375
			c0.398,0.143,0.711,0.302,0.947,0.427c0.571,0.316,1.042,0.648,1.475,1.027l0.203,0.185c0.094,0.088,0.207,0.199,0.331,0.332
			l2.15-2.549c0.913-1.645,1.936-3.156,2.928-4.621c2.29-3.381,3.792-5.737,3.813-8.179c-0.471-0.033-0.939-0.052-1.401-0.059
			l-0.495-0.004c-0.7,0-1.457,0.023-2.311,0.069c-0.301,0.024-0.609,0.042-0.906,0.059c-0.749,0.061-1.542,0.128-2.343,0.203
			l-0.781,0.088c-0.961,0.097-1.89,0.204-2.796,0.319c-3.946,0.613-7.684,2.479-11.64,4.454c-2.426,1.212-4.936,2.464-7.634,3.502
			l-3.118,1.199l-2.586-2.115c-0.299-0.243-0.785-0.638-1.271-1.242l-0.173-0.226c-0.567-0.782-0.947-1.641-1.129-2.554
			c-0.204-0.979-0.158-2.027,0.146-3.066l0.416-1.425l1.054-1.046c0.916-0.909,1.91-1.772,3.038-2.639
			c0.352-0.264,0.646-0.463,0.945-0.661l0.28-0.188c0.583-0.412,1.27-0.896,2.047-1.36c0.426-0.253,0.85-0.477,1.277-0.699
			l0.167-0.087c0.594-0.331,1.238-0.68,1.931-1.006c0.445-0.211,0.898-0.406,1.351-0.599l0.187-0.08
			c0.568-0.251,1.189-0.519,1.821-0.769c0.379-0.148,0.74-0.278,1.098-0.406l0.881-0.316c0.493-0.176,0.985-0.351,1.475-0.507
			c0.447-0.148,0.954-0.305,1.451-0.458c0.633-0.196,1.266-0.385,1.909-0.566l2.212-0.62c0.487-0.134,0.97-0.266,1.447-0.39
			l0.81-0.216c0.149-0.037,0.287-0.075,0.432-0.116l0.742-0.208l0.771-0.005c0.526-0.004,1.045-0.015,1.571-0.026l0.244-0.005
			l8.98,0.18c1.271-3.282,3.305-6.111,5.057-8.549c0.974-1.355,1.894-2.634,2.556-3.797l1.047-1.836l0.904-0.328
			c0.173-0.268,0.346-0.535,0.52-0.803c4.444-6.878,9.039-13.99,10.103-21.981l0.04-0.253c0.889-4.969-0.482-11.49-3.258-15.506
			l-2.321-3.356l2.401-3.299c2.605-3.577,6.014-5.409,9.023-7.025c1.489-0.799,2.896-1.555,3.999-2.428
			c-1.972,0.451-3.949,1.179-6.039,1.948c-3.043,1.12-6.189,2.278-9.84,2.816l-2.427,0.358l-11.06-8.581l0.901-0.28
			c-1.379-1.569-3.272-3.075-5.255-4.653c-1.758-1.398-3.571-2.84-5.244-4.494c-0.113-0.063-0.23-0.12-0.346-0.181
			c-1.354-0.71-4.953-2.596-5.277-7.172l-0.143-2.022l1.157-1.665c4.22-6.074,10.356-9.348,15.769-12.236
			c0.608-0.324,1.213-0.648,1.816-0.974l0.687-0.373l0.763-0.176c6.8-1.568,13.03-4.82,19.627-8.263l0.18-0.094
			c1.102-0.835,2.245-1.558,3.355-2.26c0.155-0.098,0.305-0.193,0.449-0.286c-3.333,0.448-6.566,0.674-9.662,0.674
			c-13.94,0-24.848-4.661-31.547-13.481l-0.373-0.555c-0.555-0.941-1.562-1.841-2.728-2.884c-1.734-1.551-3.892-3.481-5.293-6.361
			l-2.517-5.172l-3.42,3.584l-3.049-2.329c-2.005-0.339-3.563-1.31-4.64-2.896l-1.428-2.102l0.593-2.471
			c0.344-1.431,0.891-2.754,1.551-3.97c-0.054,0.045-0.11,0.09-0.165,0.135l-6.696,5.389l-0.029-0.1
			c-0.672,1.965-2.05,3.915-4.691,5.424l-0.649,0.328c-2.415,1.164-5.723,2.757-9.423,2.757c-2.757,0-5.305-0.911-7.368-2.636
			l-1.657-1.385l-0.325-2.07l-3.235,3.647c0.278,0.066,0.556,0.131,0.835,0.196l1.232,0.287l0.998,0.777
			c5.253,4.093,3.292,9.83,2.554,11.989c-0.105,0.306-0.21,0.608-0.295,0.902l-0.458,1.607l-0.23,0.205
			c-0.911,5.962-5.22,6.891-7.066,7.01l-1.072,0.069l-1.024-0.322c-4.383-1.379-8.953-2.108-13.215-2.108
			c-4.357,0-8.27,0.735-11.642,2.185c-0.21,0.14-0.421,0.272-0.63,0.397c1.433,1.553,2.919,3.042,4.447,4.336
			c3.507,2.465,7.477,3.715,11.803,3.715c4.222,0,8.804-1.214,13.249-3.511l0.743-0.383l0.603-0.115
			c0.156-0.088,0.409-0.25,0.605-0.375c1.23-0.788,3.289-2.106,6.172-2.106h2.042l1.585,1.288c3.995,3.247,6.8,6.754,9.513,10.145
			c0.56,0.7,1.126,1.408,1.712,2.125l0.189,0.244c10.807,14.783,16.168,28.514,16.229,41.69l0.33-0.121l-0.461,3.93
			c-0.103,1.396-0.266,2.787-0.489,4.172l-0.497,4.238l-15.047,10.284c2.298-1.292,4.655-2.327,6.878-3.254l3.511-1.464l2.721,2.659
			c4.197,4.101,3.691,9.748,3.356,13.484l-0.128,1.247c-1.392,8.229-3.226,17.702-6.273,25.561l-0.159,0.371l-1.822,3.87
			l5.773,0.089l-8.128,9.336c-0.481,0.552-0.959,1.149-1.424,1.773l-0.244,0.322c-0.349,0.471-0.713,0.998-1.114,1.614l-0.347,0.546
			c-0.244,0.39-0.528,0.876-0.826,1.422l-0.194,0.348c-0.044,0.077-0.088,0.153-0.128,0.231c-0.325,0.624-0.638,1.274-0.94,1.949
			c-0.016,0.036-0.034,0.074-0.052,0.112c-0.029,0.074-0.06,0.147-0.092,0.22c-0.303,0.71-0.599,1.509-0.906,2.441l-0.23,0.71
			c-0.22,0.744-0.491,1.702-0.672,2.628l-0.322,1.635l-1.146,1.21c-1.276,1.348-3.538,2.954-7.064,2.954
			c-0.906,0-1.738-0.104-2.362-0.194l-0.612-0.084c-0.266-0.038-0.533-0.076-0.799-0.106l-0.595-0.067l-0.569-0.188
			c-0.578-0.191-1.123-0.406-1.637-0.645c-0.297,0.342-0.632,0.652-1.001,0.929c-0.307,0.233-0.584,0.396-0.787,0.508l-0.096,0.054
			c0.288,0.649,0.627,1.495,0.809,2.499c1.021,1.846,2.405,2.903,4.127,3.148c1.247,0.086,2.887-1.032,3.893-2.594l1.639-2.546
			l3.026-0.089c5.442-0.152,7.883,3.433,9.062,5.137C147.903,255.986,148.015,256.148,148.119,256.292z M118.139,241.662
			l0.119,0.078l1.928-0.301c-0.079-0.183-0.155-0.369-0.228-0.553l-0.354-0.606c-0.112,0.069-0.249,0.161-0.4,0.273
			C118.796,240.864,118.433,241.243,118.139,241.662z M145.977,190.382c0.301,1.376,0.915,2.831,1.637,4.408
			c0.371-1.948,0.711-3.876,1.027-5.741l0.051-0.583c0,0,0,0,0-0.001C147.72,189.048,146.801,189.682,145.977,190.382z
			 M134.161,187.209c0.05,0.098,0.1,0.196,0.151,0.295l0.05-1.255C134.218,186.62,134.164,186.935,134.161,187.209z
			 M137.826,182.072c-1.782,1.592-2.736,2.761-3.219,3.652l1.039-1.23c0.932-1.103,1.942-2.091,3.004-2.985L137.826,182.072z
			 M184.462,54.614c-4.344,0.297-8.88,3.634-13.863,10.197l-0.111,0.141c-0.386,0.477-0.711,1.37-1.086,2.403
			c-0.6,1.65-1.325,3.645-2.838,5.563l4.837-1.68c5.775-2.006,13.598-6.685,16.692-13.287c0.328-0.764,0.693-1.529,1.062-2.299
			c0.226-0.472,0.449-0.937,0.655-1.389c-0.76,0.035-1.554,0.1-2.33,0.163C186.477,54.509,185.442,54.593,184.462,54.614z
			 M88.874,55.65c2.948,7.697,9.325,12.191,17.264,15.313c-4.134-3.488-7.163-7.847-8.591-12.563
			c-3.566-10.988,4.011-16.589,8.541-19.937c1.555-1.149,2.798-2.098,3.673-2.986c-0.573-0.54-1.038-1.136-1.395-1.787
			c-0.517,0.579-0.989,1.145-1.284,1.5c-0.711,0.855-1.446,1.738-2.239,2.557l-1.695,1.753h-8.293
			c-0.392,3.509-0.495,7.127-0.593,10.564l-0.128,4.509l-4.41,0.949C89.442,55.581,89.158,55.625,88.874,55.65z M143.644,28.484
			c9.006,1.838,15.303,6.739,17.458,13.695l0.099,0.361c1.047,4.364,0.938,8.647-0.204,12.419
			c4.486-8.321,7.473-14.975,5.651-20.984l-4.437,1.746l-2.474-4.301c-2.233-3.883-4.249-7.209-6.096-10.054l1.519,7.436
			l-8.42-1.596c-1.184-0.224-2.49-0.458-3.788-0.592c0.192,0.478,0.352,0.927,0.497,1.33
			C143.508,28.111,143.575,28.299,143.644,28.484z"/>
	</g>
	<g>
		<path style="fill:#FFFFFF;" d="M252.426,128.439c0.869,0.214,1.469-0.279,2.06,0.537c0.12,0.223-0.103,0.377-0.274,0.535
			c1.679,1.255-0.964,2.337,0,3.639l5.209,2.324c2.926-1.628,4.386-4.922,7.051-7.254c5.247-1.686,10.135-5.316,14.028-9.105
			c8.242-10.193,9.874-23.424,3.637-34.371c-3.79-5.961-9.102-11.107-16.097-13.275c-10.032-4.174-22.613-0.923-29.916,6.505
			c-8.345,8.344-11.056,20.818-7.055,32.253C234.372,119.486,243.213,126.269,252.426,128.439z"/>
		<path style="fill:#FFFFFF;" d="M259.704,141.897l-9.214-4.11l-0.9-1.214c-0.53-0.716-1.16-1.85-1.31-3.321
			c-10.441-3.361-19.171-11.403-22.627-21.091c-4.777-13.652-1.551-28.296,8.405-38.251c6.161-6.267,15.314-10.029,24.448-10.029
			c4.059,0,7.925,0.733,11.493,2.179c7.452,2.384,14.014,7.773,18.992,15.601l0.144,0.239c7.357,12.913,5.762,28.559-4.162,40.833
			l-0.462,0.506c-3.418,3.326-8.699,7.649-14.943,9.992c-0.48,0.521-0.965,1.133-1.469,1.768c-1.412,1.779-3.169,3.993-5.883,5.502
			L259.704,141.897z M253.521,122.731c2.284,0,4.281,1.02,5.623,2.872l0.226,0.312l0.182,0.339c0.111,0.206,0.21,0.422,0.297,0.647
			c0.801-0.983,1.711-2.022,2.836-3.006l0.895-0.784l1.133-0.364c3.645-1.171,7.624-3.765,11.527-7.51
			c6.661-8.425,7.799-18.93,2.968-27.524c-2.488-3.879-6.721-8.843-12.871-10.748l-0.507-0.184c-2.23-0.928-4.695-1.398-7.325-1.398
			c-6.024,0-12.263,2.539-16.28,6.625c-6.839,6.838-9.021,16.911-5.729,26.322c2.385,6.686,9.11,12.44,16.811,14.405
			C253.381,122.732,253.452,122.731,253.521,122.731z"/>
	</g>
	<g>
		<path style="fill:#FFFFFF;" d="M291.667,103.235c5.479,0.972,13.176,0,16.92-5.209c0.535-1.463,0.266-3.302-0.767-4.446
			c-3.354-2.11-6.391-1.137-10.396-1.024c-0.385,1.572,2.861,2.056,2.048,4.448c-2.159,2.428-5.248,3.9-8.023,5.418
			C291.449,102.74,291.347,103.076,291.667,103.235z"/>
		<path style="fill:#FFFFFF;" d="M295.562,109.32C295.561,109.32,295.561,109.32,295.562,109.32c-1.669,0-3.316-0.142-4.9-0.424
			l-0.808-0.143l-0.735-0.364c-0.862-0.426-3.645-2.119-3.42-6.084v-3.291l2.99-1.636c0.371-0.203,0.747-0.405,1.126-0.609
			c0.823-0.442,1.627-0.874,2.374-1.316c-0.597-1.35-0.716-2.775-0.351-4.264l1.041-4.257l4.381-0.124
			c0.774-0.022,1.533-0.085,2.336-0.151c1.028-0.085,2.092-0.173,3.211-0.173c1.945,0,4.899,0.231,8.075,2.229l0.674,0.424
			l0.533,0.591c2.446,2.711,3.19,6.745,1.896,10.277l-0.27,0.739l-0.46,0.639C309.631,106.427,303.181,109.32,295.562,109.32z"/>
	</g>
	<g>
		<path style="fill:#FFFFFF;" d="M224.571,107.895c-3.418-0.492-6.228,1.949-8.837,4.172c-1.358,1.514-0.754,3.14-0.535,4.928
			c3.144,2.165,5.903,1.189,9.372,1.848c2.176-0.867,5.53-0.383,6.228-3.148c-2.489-0.754-6.228,0.816-7.522-2.326
			c-0.385-1.407,0.215-3.311,1.294-4.17V107.895z"/>
		<path style="fill:#FFFFFF;" d="M225.124,124.814l-1.628-0.321c-0.738-0.141-1.53-0.166-2.446-0.195
			c-2.384-0.076-5.649-0.18-9.114-2.567l-2.132-1.468l-0.314-2.57c-0.029-0.236-0.068-0.469-0.106-0.698
			c-0.288-1.776-0.889-5.471,2.069-8.768l0.258-0.286l0.396-0.338c2.732-2.331,6.476-5.522,11.574-5.522
			c0.569,0,1.144,0.041,1.709,0.122l4.931,0.711v6.866c0.695,0.067,1.411,0.19,2.144,0.412l5.254,1.59l-1.344,5.322
			c-1.395,5.522-6.455,6.461-8.616,6.861c-0.358,0.067-0.9,0.167-1.077,0.229L225.124,124.814z"/>
	</g>
	<g>
		<path style="fill:#FFFFFF;" d="M145.335,219.656c0.032,0.017,0.051,0.038,0.062,0.068c0.126,0.514,3.418-7.256,3.418-7.256
			l-1.079-0.544l-6.505,2.121l-3.697,5.817l2.605,0.694C140.139,220.555,144.725,219.36,145.335,219.656z"/>
		<path style="fill:#FFFFFF;" d="M140.124,226.502l-11.65-3.102l9.012-14.182l10.721-3.495l8.005,4.031l-2.101,4.957
			c0,0-0.791,1.868-1.622,3.736c-1.89,4.247-3.139,7.052-7.069,7.052h-1.13c-0.752,0.148-1.796,0.386-2.7,0.621L140.124,226.502z"/>
	</g>
</g>
<g>
	<g>
		<path style="fill:#FFFFFF;" d="M268.006,71.47c-10.032-4.174-22.617-0.923-29.916,6.505c-8.349,8.344-11.064,20.818-7.059,32.253
			c3.307,9.259,12.139,16.042,21.366,18.211c0.865,0.214,1.461-0.279,2.056,0.537c0.12,0.223-0.103,0.377-0.282,0.535
			c1.687,1.255-0.96,2.337,0,3.639l5.213,2.324c2.926-1.628,4.386-4.922,7.051-7.254c5.247-1.686,10.13-5.316,14.033-9.105
			c8.237-10.193,9.865-23.424,3.637-34.371C280.308,78.784,274.996,73.638,268.006,71.47z"/>
		<path style="fill:#FFFFFF;" d="M259.445,136.897l-6.101-2.72l-0.2-0.271c-0.93-1.264-0.229-2.487,0.107-3.074
			c0.05-0.087,0.115-0.201,0.163-0.295c-0.002-0.001-0.003-0.003-0.005-0.004l-1.09-0.811c-0.077-0.013-0.154-0.029-0.229-0.048
			c-10.25-2.41-18.994-9.876-22.259-19.019c-4.197-11.986-1.377-24.851,7.358-33.582c5.361-5.455,13.319-8.717,21.281-8.717
			c3.541,0,6.895,0.644,9.97,1.914c6.5,2.033,12.286,6.8,16.737,13.79c6.449,11.333,5.01,25.051-3.721,35.855l-0.103,0.113
			c-3.277,3.182-8.393,7.357-14.27,9.319c-0.935,0.856-1.745,1.877-2.53,2.867c-1.285,1.62-2.615,3.296-4.552,4.373L259.445,136.897
			z M255.356,132.285l3.931,1.752c1.241-0.847,2.23-2.095,3.271-3.406c0.908-1.144,1.847-2.328,3.036-3.369l0.199-0.173l0.25-0.081
			c5.485-1.762,10.348-5.721,13.481-8.753c8.015-9.961,9.346-22.554,3.472-32.88c-4.102-6.44-9.427-10.847-15.367-12.688
			l-0.112-0.041c-2.778-1.156-5.821-1.742-9.046-1.742c-7.293,0-14.572,2.977-19.472,7.964c-8.045,8.04-10.635,19.892-6.766,30.939
			c2.98,8.341,11.009,15.171,20.456,17.392c0.144,0.035,0.314,0.027,0.48,0.019c0.109-0.005,0.215-0.01,0.318-0.01
			c0.31,0,1.252,0,1.995,1.018l0.093,0.148c0.102,0.189,0.245,0.55,0.163,0.985c0.651,1.123,0.004,2.252-0.277,2.741
			C255.429,132.155,255.392,132.22,255.356,132.285z"/>
	</g>
	<g>
		<path style="fill:#FFFFFF;" d="M307.786,93.58c-3.354-2.11-6.395-1.137-10.404-1.024c-0.386,1.572,2.87,2.056,2.056,4.448
			c-2.159,2.428-5.252,3.9-8.027,5.418c0,0.317-0.108,0.653,0.227,0.812c5.47,0.972,13.172,0,16.911-5.209
			C309.084,96.563,308.819,94.724,307.786,93.58z"/>
		<path style="fill:#FFFFFF;" d="M295.528,104.843C295.528,104.843,295.528,104.843,295.528,104.843
			c-1.406,0-2.79-0.119-4.114-0.355l-0.324-0.103c-0.696-0.331-1.018-0.956-0.96-1.857l0.006-0.86l0.662-0.362
			c0.363-0.199,0.731-0.396,1.101-0.595c2.298-1.234,4.671-2.508,6.388-4.336c0.047-0.332-0.14-0.57-0.813-1.176
			c-0.67-0.604-1.682-1.515-1.331-2.946l0.231-0.942l0.969-0.028c0.896-0.025,1.753-0.096,2.581-0.165
			c0.982-0.081,1.91-0.158,2.845-0.158c2.244,0,3.999,0.476,5.693,1.542l0.149,0.094l0.119,0.131
			c1.324,1.468,1.731,3.773,1.013,5.737l-0.06,0.164l-0.102,0.141C306.812,102.629,301.689,104.843,295.528,104.843z
			 M294.379,102.266c0.38,0.02,0.764,0.03,1.149,0.03l0,0c2.495,0,8.601-0.478,11.877-4.864c0.298-0.98,0.112-2.138-0.46-2.875
			c-1.23-0.735-2.49-1.05-4.174-1.05c-0.83,0-1.707,0.073-2.634,0.149c-0.176,0.015-0.354,0.029-0.532,0.044
			c0.756,0.745,1.645,1.934,1.04,3.714l-0.083,0.244l-0.17,0.192C298.693,99.76,296.547,101.076,294.379,102.266z"/>
	</g>
	<g>
		<path style="fill:#FFFFFF;" d="M223.239,113.369c-0.385-1.407,0.21-3.311,1.298-4.17v-1.305c-3.427-0.492-6.237,1.949-8.837,4.172
			c-1.354,1.514-0.763,3.14-0.544,4.928c3.144,2.165,5.912,1.189,9.381,1.848c2.176-0.867,5.526-0.383,6.228-3.148
			C228.272,114.942,224.537,116.511,223.239,113.369z"/>
		<path style="fill:#FFFFFF;" d="M224.664,120.164l-0.365-0.069c-1.083-0.206-2.13-0.239-3.142-0.271
			c-2.134-0.068-4.34-0.139-6.724-1.78l-0.472-0.325l-0.07-0.569c-0.035-0.291-0.082-0.577-0.127-0.859
			c-0.24-1.5-0.54-3.366,0.986-5.073l0.209-0.194c2.449-2.094,5.224-4.467,8.686-4.467c0.356,0,0.717,0.026,1.073,0.077l1.092,0.157
			v3.026l-0.484,0.382c-0.673,0.531-1.086,1.85-0.877,2.76c0.47,1.051,1.339,1.223,3.187,1.223l0.771-0.002
			c0.847,0,1.826,0.023,2.727,0.295l1.166,0.353l-0.3,1.18c-0.696,2.738-3.237,3.209-5.092,3.553
			c-0.706,0.131-1.372,0.255-1.899,0.465L224.664,120.164z M216.336,116.238c1.588,0.934,3.069,0.981,4.902,1.04
			c1.008,0.032,2.047,0.065,3.185,0.253c0.657-0.219,1.348-0.348,2.02-0.472c0.593-0.11,1.086-0.211,1.494-0.329l-0.3,0.001
			c-1.641,0-4.387,0-5.574-2.875l-0.051-0.15c-0.405-1.477-0.039-3.26,0.842-4.538c-2.213,0.351-4.255,2.098-6.237,3.793
			l-0.016,0.014c-0.63,0.749-0.541,1.524-0.319,2.913C216.299,116.004,216.317,116.121,216.336,116.238z"/>
	</g>
	<g>
		<path style="fill:#FFFFFF;" d="M253.168,135.134c0.051-0.321,0.214-1.292-0.54-1.566l-35.116,11.163
			c-5.38,1.193-10.092,3.909-15.618,4.725l-0.407-0.315l0.377-0.114l-6.232-4.708c-3.084-4.335-8.408-7.322-12.199-11.169
			c-1.242-1.14-3.525-1.354-3.671-3.414c3.842-5.53,9.903-8.346,15.604-11.437c7.753-1.788,14.68-5.477,21.623-9.1
			c4.228-3.373,11.214-5.526,9.87-11.983c-0.93-1.469-2.716-1.949-4.395-2.067c-14.804,3.039-32.143,2.56-41.408-9.64
			c-2.114-3.579-6.068-5.269-7.807-8.839c7.807-2.709,16.416-8.505,20.053-16.374c1.41-3.302,3.632-6.605,3.14-10.398
			c-2.969-2.33-8.666-1.086-12.251-1.032c-7.582,0.437-13.6,6.397-18.205,12.467c-2.116,2.606-2.056,6.072-4.446,8.567
			c-0.651-0.492-1.782,0.043-2.332-0.758c0.655-2.722,2.611-5.097,4.435-7.048c5.102-9.692,13.232-21.84,6.999-33.279
			c-1.458-1.249-4.281-0.923-5.963-0.264c-2.705-4.722-5.907-10.036-9.109-14.534c-1.942-2.874-4.438-6.188-7.528-7.805
			c-1.996-0.218-4.707-1.262-6.018,0.76c-0.758,1.032-0.81,2.326-0.758,3.632c1.24,4.009,5.757,7.258,6.505,10.949
			c-3.14-0.595-6.614-1.142-9.854-0.544c-1.469,1.086-2.45,2.763-2.392,4.667c2.709,2.27,2.219,6.01,4.718,8.07
			c6.181,0.814,13.335,3.686,15.328,10.133c1.358,5.689,0.345,11.974-4.166,15.605c-0.325-1.077,0.051-2.491,0.538-3.63
			c-0.319-1.561-0.214-3.453-2.103-4.166c-1.141-0.379-2.816-0.379-3.898,0.266c-2.073,1.36-2.716,3.746-3.103,6.02
			c-1.681,3.789,2.821,8.893-2.108,11.711c-3.144,1.514-7.597,3.791-10.895,1.03c-0.49-3.144-2.495-5.909-4.72-8.079
			c-2.32-2.063-4.922-2.063-8.023-1.583c-0.97,0.501-1.679,1.463-2.11,2.341c-1.244,2.928,0.919,5.256,2.596,7.042l-0.486,0.548
			c-6.226-2.608-12.135-7.753-14.091-14.309c-4.063-12.364,12.201-12.951,13.829-22.664c-0.165-2.276-3.585-1.516-3.632-3.9
			c0.377-1.737,0.208-3.193-1.566-4.176c-4.939-0.754-7.967,4.718-10.959,7.811h-0.493c0.054-3.043,1.467-6.181,2.607-9.1
			c-0.433-1.311,0.979-4.294-1.304-4.934c-2.384-0.923-4.539,0.319-6.284,1.842c-6.119,7.798-6.445,18.699-6.717,28.344
			c-1.032,0.223-0.816-0.974-1.576-1.3c-1.412-0.535-3.093-0.283-4.166,0.758c-1.094,1.844-0.221,4.877,0.257,7.042
			c5.534,16.746,23.043,21.356,37.457,24.718c2.435,1.898,0.921,4.502,0.274,6.781c-1.465,1.296,0,4.491-2.604,4.658
			c-9.481-2.988-20.546-3.519-29.428,0.535c-2.058,1.572-6.177,2.384-5.207,5.701c2.551,2.971,5.314,6.07,8.355,8.61
			c9.589,6.883,21.133,5.967,31.214,0.763c2.009-0.383,3.307-2.339,5.479-2.339c4.281,3.476,7.033,7.329,10.405,11.445
			c9.861,13.495,17.717,29.432,14.303,46.821l0.096-0.032l-0.053,0.456l-19.038,13.011c-3.405,2.988-6.721,6.716-5.688,11.437
			c4.069,7.967,8.021,15.827,11.717,23.409l7.79-0.48c0.332-0.814,0.559-1.525-0.529-1.85c-0.169-2.75-1.837-4.232-2.613-6.768
			c-1.619-5.046-5.136-9.603-4.928-15.069c3.309-3.911,8.188-6.187,12.743-8.083c2.435,2.386,1.842,6.399,1.576,9.659
			c-1.42,8.331-3.148,17.172-5.967,24.442l-3.425,7.256c-0.469,0.84-1.898,3.196-2.664,4.669l2.784,0.043
			c-2.521,2.892-4.682,6.245-6.26,9.874c-0.975,2.283-1.743,4.669-2.225,7.111c-1.683,1.786-3.905,1.024-6.016,0.81
			c-6.076-2.005-6.299-8.73-6.995-14.088l0,0l0,0c-2.283,3.906-2.446,8.888-0.808,13.009c0.276,1.019,0.497,1.782-0.114,2.253
			c-0.208,0.146-0.503,0.266-0.919,0.351c-0.865-0.651-1.891-1.636-2.326-2.818l0,0h-0.004l-0.279,6.716
			c-0.221,2.005,1.418,3.47,1.302,4.986c1.735,3.847,4.815,6.717,9.107,7.261c3.679,0.381,7.312-2,9.37-5.196
			c3.917-0.115,3.844,3.95,6.779,5.196c2.983,0.707,6.232,1.037,9.1-0.266l15.613-9.111c1.358,0,3.371-1.067,4.663-0.163
			c0.291,0.206,0.555,0.522,0.765,0.976c0.698,1.302-0.174,2.605-0.221,3.898c-1.624,2.33-1.013,4.215,0.351,5.958
			c1.345,1.726,3.437,3.337,4.845,5.127c0.413,0.522,0.773,1.071,1.03,1.649l0,0c0,0,0,0,0.008,0h0.488
			c1.461,1.923,2.896,3.731,4.309,5.474c0.035,0.038,0.064,0.068,0.09,0.103c0.441,0.535,0.887,1.084,1.324,1.61
			c5.65,6.832,11.103,12.774,17.202,20.145l0.754,0.266c-7.265-11.595-15.926-23.088-23.409-34.084
			c-0.97-2.009-3.416-3.363-2.861-6.027l6.768-8.023c3.084-5.856,8.837-10.893,7.526-18.205c-0.702-1.581-1.833-2.651-3.358-3.414
			c-1.169-0.146-2.352-0.231-3.53-0.248c-3.551-0.06-7.132,0.381-10.508,0.788c-7.537,1.144-13.664,5.637-20.535,8.284
			c-0.18-0.129-0.345-0.261-0.469-0.428c-0.105-0.159-0.16-0.343-0.086-0.596c6.057-6.044,14.806-8.246,22.274-10.233
			c0.598,0,1.176-0.026,1.769-0.026l13.499,0.27c0.274-5.795,5.363-10.576,8.079-15.339l0.754-0.27
			c5.157-8.083,11.163-16.474,12.525-26.767c1.135-6.346-0.437-14.375-4.18-19.79c2.99-4.112,8.083-5.256,11.976-8.355
			c10.739-7.374,23.697-9.918,34.589-16.363C255.832,136.768,254.204,136.65,253.168,135.134z"/>
		<path style="fill:#FFFFFF;" d="M208.995,299.735l-4.524-1.593l-0.225-0.272c-3.088-3.732-6.034-7.125-8.884-10.405
			c-2.842-3.274-5.527-6.366-8.318-9.74l-1.423-1.723c-1.482-1.828-2.748-3.432-3.949-5.002h-0.686l-0.344-0.756
			c-0.193-0.434-0.476-0.884-0.866-1.377c-0.654-0.833-1.511-1.665-2.339-2.469c-0.878-0.852-1.786-1.734-2.511-2.665
			c-1.912-2.444-2.106-4.795-0.589-7.174c0.052-0.436,0.157-0.847,0.252-1.219c0.2-0.784,0.302-1.246,0.089-1.644
			c-0.136-0.29-0.255-0.453-0.377-0.538c-0.043-0.03-0.186-0.131-0.574-0.131c-0.442,0-0.994,0.126-1.529,0.248
			c-0.478,0.109-0.969,0.221-1.452,0.262l-15.46,9.013c-1.461,0.664-3.13,1-4.959,1c-1.478,0-3.101-0.214-4.962-0.655l-0.204-0.067
			c-1.569-0.666-2.419-1.897-3.168-2.983c-0.841-1.218-1.38-1.925-2.461-2.081c-2.53,3.513-6.398,5.546-10.153,5.158
			c-4.474-0.566-8.063-3.408-10.136-8.004l-0.134-0.297l0.024-0.324c0.028-0.364-0.221-0.904-0.484-1.476
			c-0.433-0.942-0.973-2.113-0.814-3.552l0.322-7.851h2.111l0.311,0.834c0.183,0.496,0.555,1.025,1.079,1.541
			c-0.04-0.166-0.088-0.343-0.13-0.497c-1.808-4.544-1.466-9.955,0.922-14.042l1.882-3.221l0.48,3.699
			c0.063,0.487,0.123,0.986,0.183,1.491c0.579,4.864,1.178,9.894,5.824,11.511c0.345,0.039,0.692,0.089,1.04,0.14
			c0.646,0.094,1.256,0.183,1.816,0.183c0.748,0,1.268-0.156,1.716-0.527c0.484-2.302,1.231-4.643,2.222-6.965
			c1.256-2.887,2.859-5.614,4.783-8.14l-2.218-0.034l0.952-1.83c0.529-1.017,1.332-2.387,1.978-3.488
			c0.299-0.51,0.553-0.943,0.705-1.214l3.385-7.179c0.06-0.155,0.12-0.312,0.179-0.468l-7.871,0.485l-0.373-0.765
			c-3.387-6.948-7.217-14.598-11.707-23.388l-0.11-0.307c-1.19-5.444,2.631-9.629,6.092-12.666l0.122-0.094l18.464-12.629
			c2.803-14.279-1.671-28.84-14.082-45.824c-0.575-0.699-1.172-1.444-1.761-2.18c-2.483-3.1-4.833-6.034-8.026-8.705
			c-0.664,0.121-1.279,0.515-1.973,0.96c-0.759,0.487-1.613,1.035-2.663,1.278c-5.395,2.758-11.036,4.215-16.325,4.215
			c-5.895,0-11.299-1.733-16.063-5.153l-0.074-0.057c-3.212-2.684-6.074-5.928-8.505-8.758l-0.179-0.209l-0.077-0.264
			c-1.007-3.445,1.957-5.01,3.917-6.045c0.66-0.349,1.283-0.677,1.739-1.026l0.244-0.146c4.395-2.006,9.449-3.024,15.022-3.024
			c4.887,0,10.088,0.813,15.06,2.352c0.222-0.056,0.285-0.263,0.403-1.264c0.102-0.871,0.228-1.932,0.944-2.763
			c0.094-0.306,0.2-0.616,0.306-0.929c0.72-2.115,0.933-3.133-0.034-4.018c-12.914-3.013-32.18-7.632-38.081-25.49l-0.034-0.125
			l-0.157-0.691c-0.531-2.31-1.192-5.185,0.048-7.275l0.209-0.264c0.925-0.897,2.187-1.391,3.556-1.391
			c0.644,0,1.274,0.11,1.874,0.328c0.298-9.171,1.052-19.141,6.914-26.611l0.165-0.174c2.659-2.319,5.148-2.985,7.526-2.091
			c2.493,0.74,2.265,3.233,2.142,4.577c-0.036,0.393-0.09,0.987-0.032,1.167l0.14,0.432l-0.599,1.533
			c-0.519,1.304-1.048,2.631-1.443,3.945c2.272-2.713,4.877-5.565,8.622-5.565c0.365,0,0.738,0.029,1.108,0.085l0.225,0.034
			l0.2,0.111c2.871,1.592,2.459,4.291,2.23,5.389c0.031,0.228,0.19,0.364,1.055,0.749c0.909,0.404,2.43,1.081,2.566,2.961
			l0.011,0.152l-0.025,0.15c-0.779,4.652-4.379,7.313-7.86,9.886c-4.324,3.196-8.057,5.956-6.015,12.17
			c1.364,4.573,5.026,8.859,9.904,11.779c-0.785-1.464-1.144-3.188-0.306-5.161c0.405-0.829,1.252-2.227,2.697-2.974l0.185-0.096
			l0.205-0.032c1.218-0.189,2.194-0.276,3.071-0.276c2.427,0,4.331,0.688,5.993,2.166c2.783,2.712,4.464,5.496,5.04,8.317
			c0.724,0.495,1.55,0.736,2.513,0.736c2.105,0,4.484-1.149,6.394-2.071l0.269-0.13c2.013-1.155,1.85-2.655,1.352-5.424
			c-0.311-1.729-0.662-3.682,0.079-5.501c0.429-2.45,1.214-5.136,3.634-6.724c1.021-0.61,2.137-0.732,2.901-0.732
			c0.737,0,1.462,0.112,2.098,0.323c2.298,0.866,2.597,2.863,2.816,4.322c0.034,0.226,0.067,0.451,0.108,0.67
			c1.967-3.462,1.994-7.831,1.166-11.297c-2.122-6.85-10.677-8.694-14.256-9.165l-0.362-0.048l-0.282-0.233
			c-1.497-1.234-2.104-2.931-2.64-4.428c-0.499-1.396-0.971-2.714-2.086-3.648l-0.438-0.367l-0.017-0.57
			c-0.068-2.225,0.992-4.314,2.908-5.73l0.237-0.175l0.29-0.053c2.427-0.448,5.345-0.279,8.075,0.15
			c-0.57-1.003-1.366-2.029-2.19-3.09c-1.402-1.805-2.852-3.671-3.521-5.836l-0.056-0.326c-0.059-1.513,0.021-3.098,1.004-4.436
			c0.734-1.136,1.954-1.743,3.584-1.743c0.828,0,1.679,0.152,2.428,0.286c0.407,0.073,0.802,0.145,1.172,0.185l0.239,0.026
			l0.213,0.112c3.323,1.739,5.905,5.132,7.993,8.22c2.571,3.61,5.409,8.112,8.645,13.721c0.824-0.214,1.704-0.331,2.527-0.331
			c1.521,0,2.791,0.399,3.673,1.154l0.178,0.152l0.112,0.205c5.382,9.878,0.687,20.2-3.954,28.862
			c3.959-4.511,9.399-9.074,16.311-9.473c0.848-0.014,1.777-0.089,2.761-0.169c1.286-0.105,2.615-0.213,3.956-0.213
			c2.898,0,4.93,0.535,6.393,1.683l0.41,0.322l0.067,0.516c0.434,3.349-0.938,6.207-2.264,8.969
			c-0.336,0.701-0.671,1.397-0.968,2.093c-3.744,8.102-12.178,13.727-19.337,16.534c0.792,1.08,1.834,2.011,2.919,2.981
			c1.451,1.297,2.951,2.637,4.058,4.484c5.398,7.066,14.113,10.649,25.905,10.649c4.431,0,9.206-0.519,14.19-1.542l0.171-0.035
			l0.174,0.012c2.57,0.18,4.381,1.074,5.382,2.656l0.123,0.195l0.047,0.226c1.207,5.795-3.217,8.591-7.12,11.058
			c-1.161,0.734-2.257,1.427-3.202,2.181l-0.205,0.134l-0.636,0.331c-6.644,3.47-13.513,7.057-21.121,8.841
			c-0.561,0.304-1.125,0.605-1.691,0.906c-4.792,2.556-9.742,5.196-13.007,9.617c0.164,0.352,0.57,0.613,1.438,1.069
			c0.561,0.295,1.198,0.628,1.732,1.119c1.505,1.525,3.186,2.863,4.965,4.278c2.628,2.092,5.345,4.253,7.295,6.929l6.109,4.616
			c2.566-0.488,4.963-1.371,7.485-2.3c2.248-0.828,4.572-1.684,7.033-2.235l35.475-11.277l0.408,0.148
			c0.471,0.171,1.473,0.73,1.421,2.373c0.299,0.317,0.662,0.556,1.094,0.84c0.743,0.489,1.666,1.097,2.336,2.29l0.61,1.086
			l-1.072,0.634c-5.015,2.967-10.517,5.144-15.838,7.25c-6.351,2.513-12.918,5.112-18.679,9.067
			c-1.529,1.221-3.294,2.168-5.001,3.084c-2.308,1.24-4.502,2.417-6.126,4.29c3.481,5.541,5.03,13.422,3.863,19.944
			c-1.256,9.496-6.286,17.282-11.151,24.812c-0.522,0.809-1.043,1.614-1.554,2.416l-0.234,0.366l-0.726,0.261
			c-0.802,1.345-1.77,2.693-2.709,4c-2.355,3.279-4.79,6.669-4.964,10.357l-0.059,1.238l-2.69-0.054
			c1.67,0.92,2.844,2.18,3.582,3.842l0.09,0.292c1.046,5.828-1.928,10.224-4.805,14.475c-1.048,1.55-2.04,3.014-2.847,4.548
			l-0.154,0.228l-6.539,7.752c-0.092,0.98,0.45,1.703,1.363,2.824c0.501,0.615,1.018,1.251,1.399,2.01
			c2.674,3.928,5.438,7.834,8.363,11.968c5.091,7.195,10.356,14.635,15.022,22.083L208.995,299.735z M182.579,268.451h0.355
			l0.382,0.503c1.3,1.711,2.662,3.441,4.284,5.443c0.022,0.02,0.069,0.073,0.113,0.132l1.292,1.569
			c1.979,2.394,3.909,4.649,5.882,6.93c-1.643-2.351-3.295-4.684-4.929-6.994c-2.82-3.986-5.737-8.108-8.439-12.079l-0.094-0.162
			c-0.256-0.53-0.679-1.05-1.126-1.599c-1.038-1.276-2.331-2.864-1.836-5.241l0.066-0.315l6.889-8.165
			c0.861-1.614,1.91-3.165,2.926-4.665c2.681-3.962,5.215-7.708,4.434-12.443c-0.526-1.108-1.329-1.927-2.512-2.557
			c-1.067-0.126-2.132-0.197-3.167-0.212c-3.449-0.061-6.842,0.358-10.157,0.758l-0.18,0.022c-4.635,0.704-8.704,2.736-13.013,4.888
			c-2.325,1.161-4.729,2.362-7.216,3.32l-0.641,0.247l-0.558-0.399c-0.239-0.171-0.515-0.388-0.75-0.703
			c-0.373-0.56-0.458-1.134-0.286-1.717l0.092-0.312l0.23-0.229c6.136-6.123,14.691-8.396,22.24-10.401l0.934-0.204
			c0.29,0,0.575-0.006,0.86-0.013c0.302-0.006,0.604-0.013,0.909-0.013l12.349,0.247c0.588-3.901,2.989-7.243,5.318-10.486
			c1.042-1.451,2.027-2.823,2.805-4.187l0.233-0.409l0.787-0.282c0.438-0.684,0.881-1.371,1.328-2.061
			c4.712-7.294,9.585-14.835,10.775-23.821c1.121-6.279-0.476-13.851-3.966-18.898l-0.514-0.743l0.531-0.73
			c2.001-2.752,4.808-4.259,7.523-5.716c1.681-0.903,3.269-1.755,4.691-2.887c6.07-4.172,12.772-6.824,19.255-9.389
			c4.757-1.882,9.66-3.822,14.153-6.314c-0.2-0.151-0.417-0.294-0.653-0.449c-0.673-0.443-1.436-0.945-2.06-1.86l-0.287-0.419
			l0.047-0.289l-34.089,10.83c-2.313,0.513-4.474,1.309-6.76,2.151c-2.829,1.042-5.753,2.119-8.948,2.59l-0.537,0.079l-2.79-2.16
			l0.341-0.103l-4.387-3.314l-0.113-0.16c-1.749-2.458-4.379-4.55-6.922-6.574c-1.759-1.401-3.579-2.849-5.147-4.439
			c-0.244-0.221-0.683-0.452-1.148-0.696c-1.156-0.607-2.739-1.437-2.886-3.523l-0.031-0.448l0.256-0.369
			c3.608-5.192,9-8.068,14.215-10.85c0.611-0.326,1.222-0.652,1.828-0.98l0.151-0.083l0.169-0.039
			c7.357-1.697,14.133-5.235,20.684-8.656l0.529-0.276c1.031-0.811,2.2-1.55,3.332-2.265c4.16-2.629,6.666-4.51,6.034-8.14
			c-0.564-0.725-1.61-1.158-3.115-1.288c-5.089,1.034-9.975,1.558-14.525,1.558c-12.662,0-22.074-3.94-27.977-11.712l-0.082-0.122
			c-0.91-1.54-2.217-2.709-3.602-3.946c-1.591-1.422-3.236-2.893-4.254-4.982l-0.628-1.29l1.356-0.471
			c6.942-2.409,15.661-7.8,19.314-15.705c0.297-0.696,0.647-1.426,0.999-2.161c1.134-2.36,2.208-4.598,2.084-6.989
			c-0.987-0.572-2.432-0.852-4.394-0.852c-1.237,0-2.515,0.104-3.75,0.204c-1.027,0.083-1.997,0.162-2.875,0.175
			c-5.786,0.335-11.272,4.137-17.209,11.964c-0.886,1.092-1.35,2.369-1.84,3.722c-0.614,1.691-1.249,3.44-2.701,4.956l-0.784,0.818
			l-0.904-0.684c0.006,0.019-0.199,0.009-0.334,0.002c-0.564-0.029-1.613-0.085-2.28-1.055l-0.321-0.467l0.133-0.551
			c0.714-2.965,2.723-5.448,4.626-7.495c0.53-1.003,1.091-2.032,1.664-3.083c4.877-8.947,10.4-19.078,5.39-28.604
			c-0.422-0.273-1.069-0.421-1.853-0.421c-0.869,0-1.861,0.185-2.653,0.497l-1.024,0.402l-0.546-0.954
			c-3.41-5.952-6.367-10.672-9.042-14.428c-1.882-2.785-4.151-5.794-6.883-7.309c-0.349-0.047-0.715-0.111-1.089-0.178
			c-0.677-0.121-1.377-0.246-1.98-0.246c-0.942,0-1.272,0.309-1.488,0.643c-0.508,0.694-0.594,1.585-0.56,2.717
			c0.561,1.668,1.826,3.296,3.049,4.871c1.471,1.894,2.992,3.852,3.437,6.046l0.376,1.857l-1.862-0.353
			c-2.138-0.405-4.416-0.78-6.593-0.78c-0.897,0-1.716,0.061-2.493,0.185c-0.948,0.783-1.524,1.818-1.633,2.923
			c1.302,1.307,1.87,2.893,2.376,4.309c0.442,1.235,0.829,2.318,1.613,3.096c4.269,0.62,13.485,2.885,15.984,10.964
			c1.651,6.903-0.114,13.376-4.584,16.973l-1.472,1.185l-0.546-1.809c-0.413-1.368-0.025-2.944,0.437-4.134
			c-0.03-0.177-0.057-0.357-0.084-0.538c-0.215-1.436-0.37-2.007-1.149-2.3c-0.326-0.107-0.786-0.176-1.247-0.176
			c-0.618,0-1.183,0.125-1.55,0.344c-1.601,1.052-2.151,3.094-2.5,5.14l-0.092,0.302c-0.509,1.148-0.245,2.617,0.034,4.172
			c0.48,2.666,1.077,5.984-2.674,8.128l-0.346,0.17c-2.145,1.036-4.814,2.325-7.502,2.325c-1.72,0-3.233-0.536-4.496-1.594
			l-0.367-0.307l-0.074-0.473c-0.381-2.442-1.845-4.919-4.351-7.363c-1.141-1.013-2.468-1.483-4.258-1.483
			c-0.69,0-1.474,0.068-2.453,0.212c-0.523,0.329-1.023,0.93-1.389,1.678c-0.83,1.957,0.523,3.631,2.381,5.609l0.795,0.847
			l-1.862,2.099l-0.84-0.352c-7.267-3.044-12.946-8.838-14.819-15.119c-2.606-7.93,2.461-11.676,6.932-14.981
			c3.161-2.337,6.15-4.546,6.829-8.075c-0.058-0.21-0.266-0.353-1.042-0.698c-0.948-0.422-2.534-1.127-2.574-3.15l-0.003-0.15
			l0.032-0.146c0.342-1.574,0.014-2.2-0.742-2.677c-3.028-0.313-5.361,2.46-7.604,5.156c-0.69,0.829-1.342,1.612-2.018,2.312
			l-0.375,0.388h-2.329l0.023-1.296c0.051-2.899,1.176-5.723,2.264-8.455l0.291-0.735c-0.074-0.543-0.021-1.122,0.03-1.686
			c0.155-1.69-0.005-1.812-0.353-1.91l-0.116-0.039c-1.488-0.575-3.001-0.091-4.897,1.536c-5.806,7.485-6.106,18.115-6.371,27.498
			l-0.029,0.998l-0.976,0.211c-0.172,0.037-0.342,0.056-0.504,0.056c-1.198,0-1.67-0.928-1.871-1.324
			c-0.023-0.046-0.044-0.095-0.07-0.141c-0.262-0.084-0.581-0.135-0.896-0.135c-0.628,0-1.22,0.201-1.653,0.556
			c-0.597,1.255-0.068,3.557,0.323,5.256l0.146,0.645c5.096,15.32,20.181,20.009,36.518,23.82l0.273,0.063l0.221,0.172
			c2.737,2.133,1.778,4.954,1.078,7.014c-0.129,0.379-0.257,0.754-0.361,1.12l-0.102,0.359l-0.279,0.248
			c-0.245,0.217-0.319,0.841-0.39,1.444c-0.139,1.176-0.397,3.366-2.977,3.531l-0.238,0.015l-0.227-0.072
			c-4.805-1.514-9.836-2.314-14.551-2.314c-5.153,0-9.81,0.921-13.842,2.738c-0.599,0.437-1.297,0.805-1.974,1.163
			c-2.195,1.159-2.929,1.748-2.721,2.835c2.312,2.687,5.008,5.721,7.973,8.204c4.313,3.084,9.204,4.648,14.539,4.648
			c4.934,0,10.228-1.387,15.31-4.01l0.164-0.085l0.181-0.034c0.655-0.125,1.287-0.531,1.957-0.96
			c1.024-0.657,2.184-1.401,3.76-1.401h0.452l0.35,0.285c3.607,2.928,6.13,6.078,8.801,9.413c0.584,0.729,1.175,1.467,1.787,2.214
			c12.455,17.042,17.187,31.793,14.846,46.311l-0.289,2.465l-19.453,13.294c-3.059,2.693-6.045,5.979-5.259,10.003
			c4.3,8.419,7.995,15.796,11.277,22.512l5.255-0.324l-0.037-0.605c-0.084-1.369-0.627-2.381-1.256-3.553
			c-0.471-0.877-0.957-1.785-1.305-2.921c-0.519-1.617-1.247-3.188-2.018-4.85c-1.531-3.303-3.114-6.719-2.965-10.64l0.017-0.439
			l0.284-0.335c3.534-4.177,8.68-6.544,13.226-8.436l0.778-0.324l0.603,0.589c2.663,2.61,2.309,6.627,2.025,9.856l-0.084,0.927
			c-1.441,8.454-3.169,17.297-6.035,24.688l-3.461,7.339c-0.197,0.359-0.46,0.808-0.771,1.338c-0.272,0.463-0.589,1.004-0.901,1.547
			l3.404,0.052l-1.804,2.069c-2.481,2.845-4.574,6.145-6.052,9.544c-0.976,2.286-1.699,4.593-2.144,6.85l-0.071,0.36l-0.252,0.267
			c-0.986,1.047-2.233,1.555-3.811,1.555c-0.745,0-1.477-0.107-2.185-0.21c-0.36-0.052-0.719-0.105-1.076-0.141l-0.271-0.058
			c-4.749-1.567-6.353-5.607-7.118-9.713c-0.277,2.309,0.016,4.735,0.898,6.953l0.046,0.138c0.308,1.135,0.708,2.612-0.565,3.594
			c-0.412,0.29-0.867,0.472-1.439,0.59l-0.563,0.116l-0.46-0.346c-0.139-0.105-0.285-0.219-0.434-0.344l-0.136,3.277
			c-0.088,0.823,0.242,1.538,0.59,2.295c0.324,0.705,0.687,1.492,0.717,2.366c1.708,3.609,4.537,5.832,7.99,6.269
			c0.188,0.019,0.404,0.03,0.62,0.03c2.748,0,5.699-1.826,7.519-4.652l0.363-0.564l0.87-0.023c2.829,0,4.059,1.782,5.047,3.214
			c0.611,0.885,1.142,1.654,1.977,2.045c3.508,0.818,6.013,0.745,8.109-0.187l15.852-9.251h0.345c0.314,0,0.774-0.104,1.26-0.215
			c0.64-0.146,1.366-0.311,2.094-0.311c0.79,0,1.476,0.2,2.039,0.594c0.497,0.351,0.896,0.85,1.19,1.486
			c0.658,1.223,0.336,2.487,0.101,3.409c-0.1,0.391-0.194,0.76-0.205,1.068l-0.014,0.375l-0.214,0.307
			c-1.075,1.542-0.988,2.788,0.309,4.446c0.618,0.794,1.424,1.577,2.278,2.405c0.889,0.863,1.808,1.755,2.566,2.72
			C182.089,267.685,182.355,268.071,182.579,268.451z M168.543,229.183c-2.862,1.017-5.657,2.263-8.186,3.918
			c0.758-0.369,1.51-0.745,2.254-1.116C164.543,231.02,166.506,230.039,168.543,229.183z M177.962,226.411l-0.448,0.119
			c-0.452,0.12-0.907,0.241-1.365,0.364c0.089-0.015,0.179-0.029,0.269-0.042l0.218-0.027c1.217-0.147,2.449-0.296,3.695-0.424
			l-0.794-0.016c-0.261,0-0.544,0.007-0.828,0.013C178.461,226.405,178.213,226.41,177.962,226.411z M148.73,209.206
			c0.003,0.002,0.006,0.004,0.009,0.006c1.876-6.101,3.184-12.962,4.315-19.592l0.067-0.775c0.222-2.524,0.471-5.349-0.751-7.184
			c-3.915,1.661-8.158,3.735-11.106,7.031c0.005,3.136,1.335,6.004,2.739,9.033c0.769,1.66,1.565,3.376,2.137,5.161
			c0.28,0.914,0.687,1.674,1.119,2.479C147.867,206.5,148.493,207.669,148.73,209.206z M160.778,68.387
			c0.11,0.007,0.226,0.018,0.346,0.034c0.718-0.968,1.146-2.101,1.579-3.291C161.919,66.143,161.225,67.233,160.778,68.387z"/>
	</g>
	<g>
		<path style="fill:#FFFFFF;" d="M215.632,295.199l-0.013-0.008c0.013,0,0.017,0.008,0.022,0.017l-21.088-34.576
			c-0.497-2.707,2.227-4.72,3.354-7.046c5.371-6.995,11.004-14.204,10.191-23.418c-0.75-2.707-3.899-3.632-6.019-3.902h-0.004l0,0
			c-2.227,0.385-5.141,0.056-6.237,2.116c3.735,5.684-0.531,12.028-2.861,17.129c-0.549,1.739,0.647,4.378-0.493,5.74
			c-0.112,0.214,0.103,0.385,0.227,0.54l-0.497,0.48c0.428,2.981-2.759,4.566-2.887,7.316
			C198.228,271.627,206.572,284.203,215.632,295.199z"/>
		<path style="fill:#FFFFFF;" d="M215.618,296.464v-0.924l-0.181,0.213l-0.227,0.643l-0.339-0.117l-0.083-0.101l-3.767-2.261h1.927
			c-5.429-6.767-10.689-14.146-15.793-21.305c-2.879-4.039-5.858-8.216-8.853-12.269l-0.269-0.365l0.021-0.452
			c0.076-1.622,0.93-2.86,1.682-3.952c0.854-1.24,1.371-2.055,1.217-3.124l-0.092-0.645l0.326-0.316
			c-0.034-0.355,0.071-0.644,0.17-0.832l0.151-0.225c0.31-0.371,0.218-1.367,0.135-2.245c-0.094-1.018-0.193-2.07,0.12-3.061
			l0.056-0.146c0.347-0.761,0.737-1.55,1.138-2.36c2.263-4.573,4.602-9.302,1.816-13.541l-0.414-0.631l0.355-0.667
			c1.164-2.187,3.627-2.412,5.605-2.594c0.55-0.05,1.069-0.097,1.539-0.179l0.297-0.019l0.084,0.01
			c3.786,0.482,6.369,2.24,7.085,4.825l0.042,0.228c0.847,9.598-4.797,16.948-10.257,24.055l-0.117,0.152
			c-0.417,0.825-0.978,1.58-1.521,2.311c-0.963,1.296-1.802,2.425-1.694,3.619l21.003,34.447l-0.751,0.421l-0.405,0.474
			L215.618,296.464z M190.653,259.238c2.907,3.941,5.788,7.983,8.576,11.895c0.541,0.759,1.085,1.52,1.629,2.283l-7.515-12.323
			l-0.043-0.232c-0.433-2.362,0.926-4.193,2.126-5.807c0.522-0.703,1.016-1.368,1.334-2.024l0.136-0.221l0.192-0.25
			c5.137-6.688,10.449-13.602,9.751-22.155c-0.645-2.021-3.398-2.659-4.745-2.852c-0.51,0.079-1.034,0.127-1.544,0.173
			c-1.493,0.137-2.549,0.272-3.17,0.756c2.826,5.229,0.083,10.772-2.142,15.27c-0.374,0.756-0.739,1.493-1.066,2.206
			c-0.133,0.501-0.063,1.26,0.006,1.994c0.102,1.089,0.214,2.293-0.238,3.336l0.492,0.61l-0.906,0.875
			c0.014,1.771-0.923,3.131-1.694,4.248C191.292,257.806,190.813,258.501,190.653,259.238z"/>
	</g>
	<g>
		<path style="fill:#FFFFFF;" d="M145.299,219.656c0.036,0.017,0.056,0.038,0.056,0.068c0.127,0.514,3.418-7.256,3.418-7.256
			l-1.077-0.544l-6.506,2.121l-3.697,5.817l2.611,0.694C140.103,220.555,144.689,219.36,145.299,219.656z"/>
		<path style="fill:#FFFFFF;" d="M140.1,221.872l-4.615-1.226l4.874-7.671l7.441-2.425l2.61,1.317l-0.465,1.097
			c-3.413,8.058-3.59,8.058-4.569,8.058h-0.998l-0.021-0.08c-1.048,0.148-2.783,0.545-3.932,0.845L140.1,221.872z M139.5,219.077
			l0.609,0.162c0.985-0.25,3.395-0.833,4.645-0.898c0.478-0.953,1.335-2.859,2.188-4.831l-4.923,1.604L139.5,219.077z"/>
	</g>
	<g>
		<path style="fill:#FFFFFF;" d="M203.719,297.14l-1.083,0.548c0,0,3.293,7.757,3.414,7.256c0.013-0.03,0.034-0.052,0.064-0.064
			c0.604-0.304,5.196,0.891,5.196,0.891l2.604-0.69l-3.692-5.817L203.719,297.14z"/>
		<path style="fill:#FFFFFF;" d="M211.313,307.088l-0.324-0.084c-1.264-0.329-3.491-0.84-4.39-0.895
			c-0.172,0.085-0.366,0.132-0.57,0.132c-0.971,0-1.145,0-4.566-8.055l-0.465-1.097l2.616-1.324l7.438,2.43l4.868,7.672
			L211.313,307.088z M206.657,303.562c1.25,0.061,3.663,0.644,4.648,0.893l0.602-0.159l-2.516-3.963l-4.925-1.61
			C205.32,300.698,206.179,302.607,206.657,303.562z"/>
	</g>
	<g>
		<path style="fill:#FFFFFF;" d="M213.28,294.604l-1.075,0.544c0,0,3.277,7.77,3.405,7.269c0.008-0.03,0.034-0.051,0.073-0.073
			c0.604-0.3,5.187,0.9,5.187,0.9l2.613-0.694l-3.692-5.826L213.28,294.604z"/>
		<path style="fill:#FFFFFF;" d="M220.873,304.561l-0.325-0.085c-1.092-0.285-2.897-0.707-3.947-0.854l-0.018,0.068l-0.994,0.023
			c-0.979,0-1.155,0-4.558-8.071l-0.462-1.095l2.604-1.318l7.448,2.425l4.866,7.679L220.873,304.561z M216.212,301.027
			c1.243,0.06,3.665,0.648,4.653,0.9l0.612-0.163l-2.518-3.971l-4.928-1.605C214.882,298.162,215.735,300.07,216.212,301.027z"/>
	</g>
</g>
<g>
	<g>
		<path d="M14.73,296.561h2.572l4.498-18.218h-2.574l2.067-8.413h19.875l1.525,13.519l8.325-13.519h19.73l-2.067,8.413h-2.583
			l-4.489,18.218h2.581l-2.069,8.4H45.014l2.078-8.4h2.579l4.782-19.464H54.36l-16.682,27.864h-4.949l-2.857-27.864H29.78
			l-4.791,19.464h2.57l-2.077,8.4H12.665L14.73,296.561z"/>
	</g>
	<g>
		<path d="M66.371,296.561h3.069l4.483-18.218h-3.069l2.078-8.413h18.903l-2.067,8.413h-3.067l-4.485,18.218h3.059l-2.071,8.4
			H64.305L66.371,296.561z"/>
	</g>
	<g>
		<path d="M87.994,296.561h2.966l4.493-18.218h-2.981l2.09-8.413h18.843l-2.073,8.413h-3.11l-4.491,18.218h7.777l1.386-5.633h7.916
			l-3.455,14.033H85.917L87.994,296.561z"/>
	</g>
	<g>
		<path d="M121.885,278.343h-2.281l2.063-8.413h17.11l-2.078,8.413h-2.424l0.118,15.061h0.099l8.62-15.061h-2.476l2.075-8.413
			h14.373l-2.067,8.413h-2.433l1.191,15.061h0.105l7.59-15.061h-2.369l2.067-8.413h13.313l-2.076,8.413h-2.234l-16.065,26.926
			h-10.197l-1.08-13.514h-0.107l-7.76,13.514h-10.447L121.885,278.343z"/>
	</g>
	<g>
		<path d="M179.907,288.504l5.397-9.694h0.103l0.382,9.694H179.907z M162.791,304.961h13.062l1.896-7.698h-2.72l2.486-4.369h8.453
			l0.18,4.369h-2.861l-1.898,7.698h17.25l2.077-8.4h-2.437l-1.821-18.218h2.669l2.065-8.413h-23.747l-2.08,8.413h2.679
			l-10.713,18.218h-2.467L162.791,304.961z"/>
	</g>
	<g>
		<path d="M206.349,269.931h16.902l-2.065,8.413h-1.602l-3.182,12.893c-0.656,2.677-1.315,6.087,1.949,6.087
			c2.382,0,3.539-1.551,4.725-6.344l3.114-12.636h-1.654l2.073-8.413h12.396l-2.082,8.413h-2.574l-3.354,13.622
			c-2.142,8.666-7.864,13.566-16.954,13.566c-8.935,0-12.962-3.966-10.37-14.5l3.131-12.688h-2.523L206.349,269.931z"/>
	</g>
	<g>
		<path d="M234.432,296.561h2.527l4.485-18.218h-2.523l2.069-8.413h17.926l-2.073,8.413h-2.626l-4.493,18.218h2.63l-2.065,8.4
			H232.35L234.432,296.561z M255.802,296.561h1.555l-4.784-9.968l10.439-8.25h-2.715l2.065-8.413h16.286l-2.082,8.413h-2.57
			l-8.336,6.601l5.551,11.617h1.654l-2.086,8.4h-17.044L255.802,296.561z"/>
	</g>
	<g>
		<path d="M275.288,296.561h2.57l4.489-18.218h-2.57l2.074-8.413h31.484l-3.341,13.343h-6.853l-0.535-4.93h-7.475l-1.328,5.359h6.52
			l-1.756,7.119h-6.519l-1.396,5.74h7.479l3.286-5.208h6.909l-3.632,13.609h-31.475L275.288,296.561z"/>
	</g>
	<g>
		<path d="M309.204,296.561h2.578l4.481-18.218h-2.566l2.069-8.413h31.479l-3.337,13.343h-6.845l-0.544-4.93h-7.483l-1.31,5.359
			h6.502l-1.752,7.119h-6.506l-1.422,5.74h7.487l3.298-5.208h6.896l-3.615,13.609h-31.484L309.204,296.561z"/>
	</g>
</g>
<g>
	<g>
		<path d="M107.384,345.564l1.551-7.488h3.142c3.052,0,3.756,1.517,3.281,3.804c-0.555,2.681-2.088,3.683-5.365,3.683H107.384z
			 M91.404,353.9h20.672c10.625,0,14.553-5.535,15.617-10.679c0.942-4.523-0.876-8.323-4.607-9.565l0.023-0.103
			c3.645-0.951,6.297-3.915,7.102-7.77c1.024-4.977-0.658-9.839-9.604-9.839H99.273l-1.883,9.111h2.602l-4.084,19.73h-2.621
			L91.404,353.9z M110.354,331.206l1.444-6.931h2.872c2.883,0,3.641,1.225,3.187,3.461c-0.501,2.407-1.829,3.47-4.75,3.47H110.354z"
			/>
	</g>
	<g>
		<path d="M134.787,315.944h17.104l-2.094,9.111h-1.617l-3.219,13.973c-0.67,2.904-1.321,6.601,1.966,6.601
			c2.41,0,3.585-1.683,4.78-6.884l3.155-13.69h-1.675l2.093-9.111h12.533l-2.099,9.111h-2.6l-3.397,14.757
			c-2.155,9.389-7.961,14.705-17.138,14.705c-9.045,0-13.12-4.309-10.499-15.712l3.172-13.75h-2.553L134.787,315.944z"/>
	</g>
	<g>
		<path d="M196.72,340.647c-3.149,7.603-8.661,13.87-18.357,13.87c-14.206,0-15.264-11.63-13.53-19.618
			c2.497-11.407,10.887-19.738,19.875-19.738c3.504,0,6.503,1.174,8.276,3.307l0.548-2.523h7.599l-3.028,13.861h-7.877
			c-0.137-3.628-1.713-5.53-4.198-5.53c-3.11,0-5.725,2.742-7.428,10.563c-1.606,7.381-0.679,10.79,2.956,10.79
			c3.135,0,5.628-2.741,7.732-8.503L196.72,340.647z"/>
	</g>
	<g>
		<path d="M198.742,344.785h2.262l4.013-19.73h-2.258l1.855-9.111h16.059l-1.859,9.111h-2.347l-4.018,19.73h2.348l-1.859,9.115
			h-16.046L198.742,344.785z M217.889,344.785h1.387l-4.296-10.782l9.359-8.948h-2.433l1.851-9.111h14.576l-1.854,9.111h-2.309
			l-7.458,7.157l4.96,12.572h1.482l-1.859,9.115h-15.27L217.889,344.785z"/>
	</g>
	<g>
		<path d="M236.573,341.714h7.771c0.24,3.465,1.499,4.977,4.095,4.977c1.675,0,2.973-0.955,3.333-2.467
			c0.171-0.724,0.103-1.28-0.394-2.005c-1.645-2.463-7.492-3.521-10.225-7.603c-1.619-2.404-1.979-4.918-1.264-7.933
			c1.589-6.716,7.042-11.24,13.501-11.24c2.939,0,5.389,1.007,6.987,2.853l0.561-2.352h7.77l-2.566,10.79h-7.774l-0.043-0.505
			c-0.364-2.673-1.58-3.967-3.872-3.967c-1.576,0-2.75,0.895-3.101,2.347c-0.145,0.617-0.052,1.285,0.206,1.679
			c1.174,1.731,8.105,3.966,11.077,8.383c0.968,1.452,1.919,4.523,1.032,8.216c-1.547,6.532-7.608,11.509-14.072,11.509
			c-2.84,0-5.671-1.113-7.556-3.015l-0.6,2.519h-7.77L236.573,341.714z"/>
	</g>
</g>
<g>
	<g>
		<g>
			<path style="fill:#F7B13C;" d="M179.71,257.213l6.768-8.023c3.084-5.856,8.837-10.893,7.526-18.205
				c-0.702-1.581-1.833-2.651-3.358-3.414c-4.66-0.6-9.531,0-14.037,0.54c-7.532,1.144-13.656,5.637-20.535,8.284
				c-0.334-0.261-0.709-0.54-0.555-1.024c6.507-6.502,16.153-8.563,23.955-10.687c-12.079,0.171-22.43,0.655-34.088,1.088
				c-4.281,4.776-7.528,10.893-8.826,17.404c-1.69,1.786-3.913,1.024-6.025,0.81c-6.067-2.005-6.29-8.73-6.986-14.088
				c-2.283,3.906-2.446,8.888-0.808,13.009c0.368,1.362,0.641,2.27-1.032,2.608c-0.865-0.655-1.902-1.632-2.33-2.823l-0.279,6.716
				c-0.221,2.005,1.418,3.47,1.302,4.986c1.735,3.847,4.815,6.717,9.107,7.261c3.679,0.381,7.312-2,9.37-5.196
				c3.917-0.115,3.844,3.95,6.779,5.196c2.983,0.707,6.232,1.037,9.1-0.266l15.613-9.111c1.675,0,4.333-1.628,5.427,0.818
				c0.698,1.298-0.167,2.6-0.221,3.894c-3.686,5.32,4.225,8.297,6.234,12.735h0.488c7.804,10.199,14.795,17.511,22.925,27.333
				l0.754,0.266c-7.265-11.595-15.926-23.088-23.409-34.084C181.602,261.231,179.155,259.878,179.71,257.213z"/>
			<path d="M205.98,301.781c-0.495,0-0.995-0.083-1.48-0.253l-0.755-0.266c-0.762-0.268-1.437-0.74-1.953-1.362
				c-3.06-3.696-5.99-7.073-8.824-10.337c-4.472-5.152-8.712-10.037-13.271-15.914c-0.843-0.454-1.535-1.178-1.946-2.086
				c-0.346-0.764-1.502-1.887-2.522-2.878c-2.164-2.101-6.306-6.123-4.764-11.301l-13.46,7.854
				c-0.131,0.076-0.266,0.146-0.404,0.209c-1.878,0.853-3.989,1.285-6.275,1.285c-1.728,0-3.591-0.242-5.696-0.741
				c-0.244-0.058-0.483-0.136-0.714-0.234c-2.057-0.874-3.289-2.343-4.132-3.517c-3.046,2.775-6.976,4.237-10.734,3.847
				c-0.034-0.003-0.067-0.007-0.101-0.011c-5.505-0.697-10.101-4.287-12.61-9.85c-0.235-0.521-0.367-1.08-0.39-1.648
				c-0.055-0.127-0.131-0.293-0.193-0.426c-0.488-1.062-1.298-2.819-1.105-5.049l0.273-6.596c0.066-1.601,0.978-2.999,2.322-3.73
				c-0.318-3.896,0.513-7.808,2.454-11.129c0.962-1.646,2.868-2.496,4.733-2.119c1.869,0.379,3.29,1.904,3.535,3.795
				c0.065,0.498,0.126,1.008,0.187,1.525c0.636,5.343,1.276,7.847,3.429,8.773c0.241,0.032,0.482,0.066,0.724,0.102
				c0.161,0.024,0.319,0.047,0.471,0.068c1.67-6.159,4.913-12.115,9.287-16.994c0.807-0.901,1.945-1.434,3.153-1.479
				c2.473-0.092,4.886-0.186,7.27-0.279c8.923-0.348,17.351-0.676,26.921-0.812c1.847-0.013,3.477,1.085,4.169,2.72
				c0.951-0.053,1.914-0.083,2.887-0.083c1.697,0,3.25,0.093,4.747,0.287c0.496,0.063,0.978,0.21,1.425,0.434
				c2.519,1.26,4.348,3.14,5.438,5.59c0.146,0.327,0.251,0.672,0.315,1.024c1.273,7.102-2.372,12.491-5.302,16.821
				c-0.998,1.475-1.942,2.869-2.667,4.247c-0.15,0.284-0.33,0.552-0.537,0.797l-5.315,6.3c0.061,0.075,0.121,0.148,0.173,0.214
				c0.517,0.635,1.148,1.41,1.668,2.381c2.625,3.852,5.347,7.698,8.225,11.766c5.117,7.231,10.407,14.708,15.121,22.232
				c1.006,1.606,0.887,3.672-0.297,5.151C208.599,301.186,207.309,301.781,205.98,301.781z M147.351,257.466
				c2.369,0.495,4.078,0.473,5.391-0.06l15.384-8.977c0.654-0.382,1.394-0.59,2.151-0.607c0.136-0.02,0.428-0.088,0.645-0.137
				c0.766-0.175,1.719-0.394,2.808-0.394c2.493,0,4.555,1.178,5.769,3.262l3.276-3.882c0.901-1.643,1.933-3.168,2.933-4.646
				c2.644-3.908,4.301-6.547,3.997-9.638c-0.121-0.17-0.274-0.331-0.487-0.488c-0.861-0.08-1.768-0.119-2.749-0.119
				c-3.001,0-6.121,0.374-9.138,0.735l-0.117,0.014c-4.145,0.643-7.973,2.555-12.025,4.578c-2.397,1.197-4.876,2.435-7.512,3.449
				c-1.46,0.563-3.111,0.317-4.346-0.648c-2.844-2.221-2.385-4.857-2.057-5.888c0.216-0.679,0.592-1.296,1.096-1.8
				c0.852-0.851,1.746-1.634,2.673-2.357c-0.731,0.028-1.466,0.057-2.204,0.086c-1.755,0.068-3.525,0.137-5.323,0.206
				c-3.286,4.102-5.602,8.974-6.583,13.894c-0.164,0.823-0.557,1.583-1.134,2.192c-1.6,1.691-3.662,2.549-6.129,2.549
				c-0.977,0-1.864-0.13-2.647-0.243c-0.313-0.046-0.625-0.093-0.935-0.124c-0.323-0.033-0.642-0.101-0.95-0.203
				c-0.89-0.294-1.694-0.652-2.423-1.064c-0.016,0.027-0.032,0.054-0.049,0.081c-0.5,0.809-1.431,1.821-3.112,2.392
				c-0.001,0.029-0.003,0.058-0.005,0.087c0.06,0.174,0.206,0.491,0.307,0.711c0.32,0.696,0.756,1.643,0.932,2.794
				c0.929,1.753,2.538,3.644,5.228,4.007c1.74,0.15,3.839-1.196,5.118-3.18c0.795-1.235,2.148-1.998,3.616-2.042l0.293-0.004
				c4.499,0,6.56,2.985,7.667,4.589C146.9,256.865,147.167,257.253,147.351,257.466z"/>
		</g>
		<g>
			<path style="fill:#F7B13C;" d="M192.976,245.515c-0.54,1.735,0.647,4.391-0.488,5.736c-0.116,0.218,0.103,0.385,0.223,0.548
				l-0.497,0.48c0.433,2.981-2.75,4.558-2.875,7.316c8.893,12.036,17.241,24.617,26.301,35.613l-21.088-34.576
				c-0.497-2.707,2.227-4.72,3.354-7.046c5.371-6.995,11.004-14.204,10.191-23.418c-0.75-2.707-3.899-3.632-6.019-3.902
				c-2.223,0.385-5.145,0.056-6.241,2.116C199.573,234.065,195.315,240.418,192.976,245.515z"/>
			<path d="M215.643,299.665c-1.29,0-2.566-0.558-3.443-1.623c-6.113-7.42-11.983-15.655-17.66-23.619
				c-2.861-4.014-5.82-8.165-8.787-12.18c-0.608-0.822-0.914-1.828-0.868-2.849c0.114-2.538,1.39-4.393,2.235-5.621
				c0.219-0.32,0.538-0.782,0.659-1.03c-0.074-0.71,0.024-1.418,0.275-2.069c0.082-0.548,0.255-1.052,0.479-1.483
				c-0.014-0.222-0.039-0.499-0.059-0.71c-0.112-1.203-0.25-2.7,0.245-4.292c0.057-0.182,0.125-0.36,0.205-0.534
				c0.356-0.776,0.755-1.581,1.164-2.407c2.304-4.648,3.69-7.885,2.024-10.42c-0.895-1.362-0.976-3.103-0.21-4.542
				c1.972-3.705,5.827-4.057,8.13-4.268c0.484-0.044,0.942-0.086,1.285-0.146c0.436-0.076,0.883-0.087,1.324-0.03
				c5.121,0.652,8.675,3.252,9.75,7.133c0.073,0.261,0.122,0.528,0.145,0.798c0.953,10.801-5.306,18.987-10.854,26.209
				c-0.511,0.945-1.115,1.758-1.657,2.488c-0.261,0.351-0.609,0.819-0.844,1.19l20.263,33.225c1.218,1.997,0.685,4.596-1.222,5.952
				C217.443,299.396,216.539,299.665,215.643,299.665z M197.287,246.82c0.002,0.058,0.005,0.121,0.01,0.188
				c3.682-5.014,6.62-9.986,6.41-15.658c-0.264-0.17-0.819-0.417-1.653-0.578c-0.171,0.021-0.34,0.04-0.505,0.057
				c0.981,5.395-1.611,10.624-3.472,14.379C197.804,245.757,197.537,246.295,197.287,246.82z"/>
		</g>
	</g>
	<g>
		<path d="M153.245,164.092c3.414-17.389-4.442-33.326-14.303-46.821c-3.371-4.116-6.123-7.969-10.405-11.445
			c-2.172,0-3.47,1.956-5.479,2.339c-10.081,5.204-21.625,6.121-31.214-0.763c-3.041-2.54-5.804-5.639-8.355-8.61
			c-0.97-3.318,3.148-4.129,5.207-5.701c8.882-4.055,19.946-3.523,29.428-0.535c2.604-0.167,1.139-3.363,2.604-4.658
			c0.647-2.279,2.161-4.883-0.274-6.781c-14.414-3.363-31.923-7.972-37.457-24.718c-0.478-2.165-1.351-5.198-0.257-7.042
			c1.073-1.041,2.754-1.294,4.166-0.758c0.76,0.326,0.544,1.523,1.576,1.3c0.272-9.644,0.598-20.546,6.717-28.344
			c1.745-1.523,3.9-2.765,6.284-1.842c2.283,0.64,0.872,3.624,1.304,4.934c-1.139,2.919-2.553,6.057-2.607,9.1h0.493
			c2.992-3.092,6.021-8.565,10.959-7.811c1.774,0.983,1.943,2.44,1.566,4.176c0.047,2.384,3.467,1.624,3.632,3.9
			c-1.628,9.713-17.892,10.3-13.829,22.664c1.955,6.556,7.864,11.7,14.091,14.309l0.486-0.548c-1.677-1.786-3.84-4.114-2.596-7.042
			c0.431-0.878,1.14-1.84,2.11-2.341c3.101-0.48,5.703-0.48,8.023,1.583c2.225,2.17,4.23,4.935,4.72,8.079
			c3.298,2.761,7.751,0.484,10.895-1.03c4.928-2.818,0.426-7.922,2.108-11.711c0.388-2.275,1.03-4.66,3.103-6.02
			c1.082-0.645,2.757-0.645,3.898-0.266c1.889,0.713,1.784,2.604,2.103,4.166c-0.486,1.139-0.863,2.553-0.538,3.63
			c4.511-3.63,5.524-9.916,4.166-15.605c-1.994-6.447-9.147-9.319-15.328-10.133c-2.499-2.06-2.009-5.8-4.718-8.07
			c-0.058-1.904,0.923-3.581,2.392-4.667c3.241-0.598,6.714-0.051,9.854,0.544c-0.748-3.69-5.264-6.939-6.505-10.949
			c-0.051-1.306,0-2.6,0.758-3.632c1.311-2.022,4.022-0.979,6.018-0.76c3.091,1.617,5.586,4.93,7.528,7.805
			c3.202,4.498,6.404,9.811,9.109,14.534c1.681-0.659,4.504-0.985,5.963,0.264c6.232,11.439-1.898,23.587-6.999,33.279
			c-1.825,1.951-3.78,4.326-4.435,7.048c0.55,0.801,1.681,0.266,2.332,0.758c2.39-2.495,2.33-5.961,4.446-8.567
			c4.605-6.07,10.623-12.03,18.205-12.467c3.585-0.053,9.282-1.298,12.251,1.032c0.492,3.793-1.731,7.096-3.14,10.398
			c-3.637,7.869-12.246,13.665-20.053,16.374c1.739,3.57,5.693,5.26,7.807,8.839c9.265,12.2,26.604,12.679,41.408,9.64
			c1.679,0.118,3.465,0.598,4.395,2.067c1.345,6.457-5.642,8.61-9.87,11.983c-6.943,3.624-13.87,7.312-21.623,9.1
			c-5.701,3.091-11.762,5.907-15.604,11.437c0.145,2.06,2.429,2.274,3.671,3.414c3.791,3.847,9.115,6.834,12.199,11.169l6.232,4.708
			L153.245,164.092z"/>
	</g>
	<g>
		<path style="fill:#FBAA29;" d="M157.451,21.555c2.872,5.416,5.254,11.105,6.226,17.393c0.433,0.171,0.709,0.76,1.304,0.54
			c1.953-2.54,0.379-5.74,2.339-8.074c1.675-0.917,2.05,1.574,2.602,2.6c0.431,14.585-8.629,25.264-16.378,36.425
			c0.051,0.548,0.647,0.865,1.036,1.307c3.078,0.101,6.391,2.114,9.374,0.268c3.9-10.139,12.621-20.869,24.703-20.811
			c1.521,0.323,3.264,0.274,4.669,1.026c-1.628,11.713-14.14,18.706-23.675,22.872c-0.555,0.493-1.14,1.251-0.503,1.844
			c9.871,9.595,18.708,22.218,33.559,22.659c2.112,0.161,2.112,2.491,3.623,3.633c2.237,1.947,4.67,3.409,7.539,3.893
			c-0.698,1.795-3.195,1.472-4.665,2.607c-4.707,0.493-8.237,1.304-12.516,0c-6.669-0.861-12.572-2.647-18.214-6.777
			c-0.818-0.053-1.57,0-2.069,0.765c0.233,1.568,1.956,2.707,3.148,3.68c5.042,3.037,10.079,6.13,15.828,7.539
			c-0.651,1.57-3.093,1.139-4.391,2.33c-5.534,3.907-11.752,7.098-15.33,12.735v1.576c5.796,3.135,11.865,7.909,15.823,13.277
			c-2.27,1.737-5.089,2.27-7.8,3.086c-8.786,2.712-17.072,6.609-26.234,8.351c-1.409-3.356-0.437-6.783-1.846-10.135
			c-0.105-1.957-0.649-4.335-1.572-6.234c0.328-0.33,0.709-0.602,0.548-1.088c-0.221-0.486-0.713-0.158-1.036-0.221
			c-5.312-13.709-13.6-24.983-23.962-35.66l-2.054-0.535c-8.995,5.14-20.756,10.561-31.216,4.98
			c-4.174-2.221-6.076-5.309-9.379-8.89V97.76c8.623-5.746,18.918-4.391,28.894-3.148c2.165,0.48,5.196,2.542,7.001,0.272
			c-0.555-5.69,6.222-12.953-1.039-16.909c-13.994-1.943-29.168-6.672-35.131-20.82c-0.381-1.782-1.457-3.626-1.028-5.466
			c2.279,2.767,3.688,5.909,6.768,8.344c0.878,0.16,1.857-0.109,2.069-1.028c0.537-4.772-3.196-8.456-2.6-13.557
			c0.105-7.747,1.197-15.065,5.474-21.081c-0.325-0.861,0.981-1.347,1.563-1.788c1.197-0.482,0.874,1.034,1.294,1.572
			c-1.936,6.505-6.235,13.065-4.166,20.276c0.486,0.653,1.249,0.917,2.062,0.756c3.474-5.093,5.314-11.87,10.67-15.335h0.769
			c-0.105,1.465-1.964,2.487-1.3,3.9c1.3,2.221,2.484,0.159,4.438,0.814c0.6,2.322-2.652,3.573-4.168,4.926
			c-4.491,2.547-7.26,7.153-8.563,11.713c-1.568,6.774,2.264,11.968,6.779,16.633c4.061,3.367,8.606,6.404,13.213,7.543
			c1.358-0.495,3.363-0.495,3.69-2.332c0.97-3.577-4.061-5.095-5.472-7.537c0.486-0.379-0.062-1.304,0.76-1.568
			c9.261-0.272,4.603,15.063,15.875,11.703c4.502-0.76,8.895-2.924,10.679-7.53c1.03-4.391-1.185-9.006,1.03-13.283
			c0.713-0.433,1.358-1.028,2.332-0.758c0.707,3.144-3.639,6.558-0.265,9.597c0.972,0.972,2.868,1.028,3.9,0.272
			c7.16-6.614,8.404-15.502,4.988-24.452c-3.044-5.635-9.057-8.398-15.125-8.832c0.385-1.133,1.733-0.977,2.33-2.103
			c-0.33-3.262-4.179-2.013-5.418-4.185c1.833-1.508,4.932,0.105,7.258,0.544l7.813,4.172c1.897-0.807,0.749-2.981,0.535-4.172
			c-2.058-5.853-7.484-10.516-10.188-15.877c0.81-1.307,1.735,0.266,2.602,0.266C151.694,12.502,154.309,17.321,157.451,21.555z"/>
	</g>
	<g>
		<path d="M172.512,86.805c-0.218,2.009-0.218,3.091-1.293,4.723c-1.137,0.915-2.816,1.458-4.181,1.028
			c-2.928-1.198-5.96-3.958-6.5-7.267c2.118-0.274,3.63,4.236,6.5,2.609c0.707-0.649,1.788-0.823,2.112-1.844
			c0.872-2.172-1.896-3.15-0.534-5.213C171.484,81.498,171.585,84.7,172.512,86.805z"/>
	</g>
	<g>
		<path d="M159.509,94.128c0.488,1.947-0.762,3.133-1.307,4.665c-1.671,1.131-3.842,1.131-5.74,0.535
			c-2.335-1.414-5.748-3.853-5.205-7.044c2.277-0.27,3.851,2.489,6.286,2.6c1.576,0.383,2.274-1.463,2.602-2.6
			c-0.105-1.247-2.058-2.437-0.814-3.632C158.413,88.598,158.635,92.072,159.509,94.128z"/>
	</g>
	<g>
		<g>
			<path d="M284.103,84.745c6.228,10.946,4.6,24.178-3.637,34.371c-3.902,3.789-8.786,7.419-14.033,9.105
				c-2.664,2.332-4.125,5.626-7.051,7.254l-5.213-2.324c-0.96-1.302,1.687-2.384,0-3.639c0.18-0.158,0.403-0.313,0.282-0.535
				c-0.596-0.816-1.191-0.323-2.056-0.537c-9.227-2.17-18.059-8.953-21.366-18.211c-4.005-11.435-1.29-23.908,7.059-32.253
				c7.299-7.428,19.884-10.679,29.916-6.505C274.996,73.638,280.308,78.784,284.103,84.745z"/>
		</g>
		<g>
			<path style="fill:#FBAA29;" d="M260.96,72.286c-2.986,3.577-6.014,7.64-7.809,11.919c-4.224-0.542-9.154-3.088-11.159-6.723
				C247.351,73.415,254.778,71.263,260.96,72.286z"/>
		</g>
		<g>
			<path style="fill:#FBAA29;" d="M273.202,76.671c-4.001,5.373-10.34,9.109-17.181,8.344c0-1.726,1.577-3.459,2.334-5.198
				c1.898-2.497,3.414-4.44,5.753-6.772C267.573,73.145,270.927,74.719,273.202,76.671z"/>
		</g>
		<g>
			<path style="fill:#FBAA29;" d="M280.745,83.719c1.945,3.305,3.569,6.781,4.164,10.679c-9.749,6.727-20.424,9.591-33.06,8.561
				c0.111-4.823,0.437-10.839,2.87-15.335c7.432,0.867,15.395-2.608,20.544-9.105C277.485,79.817,279.057,81.712,280.745,83.719z"/>
		</g>
		<g>
			<path style="fill:#FBAA29;" d="M243.504,83.439c2.605,1.576,5.252,3.211,8.345,3.637c-1.405,5.262-2.827,9.488-2.596,15.348
				c-6.237-0.491-12.902-2.602-17.669-6.232c0.972-6.453,3.363-12.309,8.288-16.374L243.504,83.439z"/>
		</g>
		<g>
			<path d="M307.786,93.58c1.032,1.144,1.298,2.983,0.763,4.446c-3.739,5.209-11.441,6.181-16.911,5.209
				c-0.334-0.159-0.227-0.495-0.227-0.812c2.776-1.518,5.868-2.99,8.027-5.418c0.814-2.392-2.442-2.876-2.056-4.448
				C301.391,92.443,304.433,91.47,307.786,93.58z"/>
		</g>
		<g>
			<path style="fill:#FFFFFF;" d="M305.186,97.76c-1.628,2.215-3.846,3.033-6.245,3.365c1.799-1.362,3.902-4.238,3.101-6.513
				C303.284,94.724,306.981,95.092,305.186,97.76z"/>
		</g>
		<g>
			<path style="fill:#FBAA29;" d="M271.9,123.012h-1.079c-4.335-4.986-10.619-7.532-17.392-7.805
				c-0.818-2.97-1.683-6.607-1.306-9.381c11.647,1.144,23.679-2.05,32.996-8.336C286.759,108.165,280.419,117.814,271.9,123.012z"/>
		</g>
		<g>
			<path style="fill:#FBAA29;" d="M248.979,105.567c0.651,3.307,0.814,6.766,1.85,9.863c-3.641,0.595-6.832,2.217-9.92,4.174
				c-5.912-4.712-9.278-12.304-9.325-19.783C237.109,102.365,243.119,104.312,248.979,105.567z"/>
		</g>
		<g>
			<path d="M224.537,109.2c-1.088,0.859-1.683,2.763-1.298,4.17c1.298,3.142,5.033,1.572,7.526,2.326
				c-0.702,2.765-4.052,2.281-6.228,3.148c-3.469-0.66-6.237,0.317-9.381-1.848c-0.218-1.789-0.809-3.414,0.544-4.928
				c2.6-2.223,5.41-4.665,8.837-4.172V109.2z"/>
		</g>
		<g>
			<path style="fill:#FFFFFF;" d="M220.896,111.303c-1.131,1.309-0.587,2.983,0,4.393c0.493,0.272,1.019,0.546,1.568,0.816
				c-1.225,0.053-3.513,0-4.703-1.305C217.923,113.31,219.054,111.688,220.896,111.303z"/>
		</g>
		<g>
			<path style="fill:#FBAA29;" d="M251.583,118.026c0.968,2.72,2.223,5.697,3.135,8.079c-4.386,0-8.507-1.951-11.976-4.926
				C245.355,119.328,248.542,118.844,251.583,118.026z"/>
		</g>
		<g>
			<path style="fill:#FBAA29;" d="M268.494,124.528c-2.716,1.799-6.94,2.065-9.587,1.846c-1.636-2.707-3.474-5.247-4.189-8.348
				C260.201,118.026,265.401,120.518,268.494,124.528z"/>
		</g>
	</g>
	<g>
		<path style="fill:#00471B;" d="M144.926,221.48c-0.469,0.84-1.898,3.196-2.664,4.669l3.211,0.043
			c11.655-0.428,22.013-0.917,34.09-1.079l13.499,0.27c0.274-5.795,5.363-10.576,8.079-15.339l0.754-0.27
			c5.157-8.083,11.163-16.474,12.525-26.767c1.135-6.346-0.437-14.375-4.18-19.79c2.99-4.112,8.083-5.256,11.976-8.355
			c10.739-7.374,23.697-9.918,34.589-16.363c-0.972-1.731-2.6-1.848-3.637-3.365c0.051-0.321,0.214-1.292-0.54-1.566l-35.116,11.163
			c-5.38,1.193-10.092,3.909-15.618,4.725l-6.228-4.725l-1.113-0.75c-2.283,1.739-8.156,3.575-10.867,4.384
			c-8.779,2.714-20.229,7.584-29.398,9.312l-1,6.839l-19.038,13.011c-3.405,2.988-6.721,6.716-5.688,11.437
			c4.069,7.967,8.021,15.827,11.717,23.409l7.79-0.48c0.332-0.814,0.559-1.525-0.529-1.85c-0.169-2.75-1.837-4.232-2.613-6.768
			c-1.619-5.046-5.136-9.603-4.928-15.069c3.309-3.911,8.188-6.187,12.743-8.083c2.435,2.386,1.842,6.399,1.576,9.659
			c-1.42,8.331-3.148,17.172-5.967,24.442L144.926,221.48z"/>
		<path d="M145.473,227.131c-0.005,0-0.009,0-0.013,0l-3.211-0.043c-0.326-0.005-0.627-0.177-0.794-0.457
			c-0.167-0.28-0.177-0.626-0.027-0.915c0.525-1.009,1.326-2.376,1.97-3.473c0.3-0.513,0.555-0.948,0.708-1.221l3.395-7.199
			c0.125-0.322,0.248-0.648,0.368-0.976l-7.533,0.464c-0.37,0.023-0.735-0.184-0.901-0.526c-3.389-6.949-7.219-14.601-11.71-23.394
			c-0.037-0.072-0.064-0.148-0.081-0.227c-1.153-5.273,2.594-9.366,5.986-12.344c0.029-0.025,0.058-0.048,0.089-0.069l18.698-12.779
			l0.941-6.432c0.058-0.396,0.361-0.712,0.755-0.787c5.969-1.125,12.866-3.58,19.535-5.954c3.469-1.235,6.745-2.401,9.759-3.333
			c6.819-2.035,9.514-3.426,10.576-4.234c0.318-0.244,0.759-0.257,1.093-0.032l1.114,0.75l5.953,4.514
			c2.816-0.464,5.396-1.414,8.119-2.417c2.255-0.831,4.587-1.689,7.046-2.235l35.034-11.141c0.198-0.063,0.412-0.058,0.606,0.013
			c0.507,0.184,1.294,0.709,1.194,2.179c0.347,0.404,0.772,0.684,1.251,0.999c0.749,0.493,1.599,1.052,2.229,2.175
			c0.249,0.445,0.099,1.008-0.341,1.268c-4.992,2.954-10.482,5.126-15.791,7.226c-6.368,2.52-12.953,5.125-18.745,9.102
			c-1.524,1.216-3.276,2.156-4.969,3.065c-2.414,1.296-4.705,2.526-6.383,4.557c3.532,5.484,5.116,13.386,3.949,19.914
			c-1.249,9.437-6.258,17.191-11.103,24.69c-0.523,0.81-1.043,1.615-1.555,2.418c-0.112,0.175-0.278,0.308-0.474,0.379l-0.43,0.155
			c-0.801,1.359-1.752,2.683-2.755,4.079c-2.383,3.318-4.847,6.749-5.027,10.537c-0.024,0.508-0.453,0.864-0.957,0.895l-13.499-0.27
			c-9.385,0.127-17.708,0.45-26.52,0.792c-2.464,0.096-4.96,0.193-7.517,0.287C145.496,227.131,145.484,227.131,145.473,227.131z
			 M143.836,225.231l1.625,0.022c2.548-0.094,5.034-0.19,7.49-0.286c8.824-0.343,17.159-0.667,26.599-0.794l12.653,0.253
			c0.498-3.948,2.936-7.342,5.298-10.631c1.048-1.459,2.038-2.837,2.824-4.217c0.112-0.195,0.288-0.343,0.499-0.419l0.452-0.162
			c0.458-0.716,0.921-1.435,1.388-2.157c4.732-7.324,9.625-14.898,10.824-23.959c1.134-6.345-0.485-14.017-4.022-19.132
			c-0.227-0.328-0.221-0.764,0.013-1.086c1.956-2.69,4.729-4.178,7.41-5.618c1.621-0.87,3.297-1.77,4.741-2.92
			c6.021-4.136,12.705-6.782,19.17-9.339c4.915-1.945,9.987-3.952,14.612-6.568c-0.309-0.298-0.665-0.532-1.051-0.786
			c-0.648-0.426-1.381-0.909-1.969-1.769c-0.136-0.199-0.19-0.442-0.151-0.679c0.021-0.134,0.032-0.238,0.036-0.319l-34.48,10.961
			c-2.417,0.54-4.689,1.376-6.885,2.186c-2.812,1.036-5.721,2.107-8.881,2.573c-0.249,0.037-0.503-0.028-0.705-0.181l-6.765-5.086
			c-1.913,1.223-5.475,2.616-10.607,4.148c-2.967,0.917-6.226,2.077-9.675,3.305c-6.496,2.313-13.206,4.701-19.158,5.902
			l-0.904,6.18c-0.038,0.259-0.183,0.491-0.399,0.639l-18.991,12.979c-3.148,2.769-6.225,6.162-5.372,10.378
			c4.351,8.519,8.083,15.97,11.393,22.749l6.543-0.403c0.001-0.003,0.001-0.006,0.002-0.009c-0.03-0.013-0.07-0.028-0.122-0.043
			c-0.377-0.113-0.644-0.449-0.668-0.842c-0.089-1.442-0.648-2.484-1.294-3.69c-0.463-0.863-0.942-1.756-1.28-2.861
			c-0.527-1.642-1.293-3.295-2.034-4.894c-1.514-3.267-3.08-6.646-2.935-10.486c0.008-0.209,0.086-0.41,0.222-0.571
			c3.486-4.119,8.589-6.466,13.099-8.343c0.349-0.144,0.749-0.067,1.018,0.196c2.551,2.498,2.204,6.429,1.926,9.587l-0.07,0.819
			c-1.448,8.519-3.172,17.341-6.027,24.705l-3.451,7.317c-0.186,0.337-0.448,0.784-0.757,1.311
			C144.665,223.796,144.234,224.531,143.836,225.231z M148.42,209.406c0.191,0.114,0.352,0.249,0.482,0.405
			c1.974-6.268,3.326-13.352,4.49-20.187l0.061-0.75c0.237-2.686,0.503-5.702-0.968-7.626c-4.053,1.709-8.498,3.844-11.556,7.317
			c-0.032,3.259,1.33,6.197,2.769,9.301c0.765,1.651,1.556,3.358,2.122,5.122c0.288,0.941,0.703,1.715,1.143,2.535
			C147.577,206.669,148.21,207.848,148.42,209.406z"/>
	</g>
	<g>
		<g>
			<path style="fill:#FFFFFF;" d="M199.761,150.332c-1.568-0.657-3.632-0.925-3.632-3.135
				C197.431,147.946,199.119,149.027,199.761,150.332z"/>
		</g>
		<g>
			<path style="fill:#FFFFFF;" d="M195.101,151.636c-0.428-1.574-2.39-1.144-2.39-2.876
				C194.776,146.162,195.422,151.304,195.101,151.636z"/>
		</g>
		<g>
			<path style="fill:#FFFFFF;" d="M192.227,152.94l-0.278,0.203c-1.401-1.191-2.429-1.942-3.358-3.354
				c1.148-0.276,2.613-1.407,3.093,0.542C191.575,151.304,192.552,152.122,192.227,152.94z"/>
		</g>
		<g>
			<path style="fill:#FFFFFF;" d="M187.511,154.726c-1.465-1.084-2.536-2.067-2.819-3.906l1.786-0.488
				C187.356,151.578,188.273,153.144,187.511,154.726z"/>
		</g>
		<g>
			<path style="fill:#FFFFFF;" d="M183.878,153.694c0.052,0.758-0.051,1.518-0.488,2.056c-0.595-0.702-2.334-1.84-2.872-3.356
				C182.04,151.636,183.929,151.304,183.878,153.694z"/>
		</g>
		<g>
			<path style="fill:#FFFFFF;" d="M179.218,156.297c-1.572-0.109-1.947-1.354-2.326-2.602
				C178.843,151.032,179.597,155.048,179.218,156.297z"/>
		</g>
		<g>
			<path style="fill:#FFFFFF;" d="M175.32,158.631c-1.467-0.979-2.658-2.118-2.609-3.643l2.332-1.028
				C176.127,155.427,176.073,157.052,175.32,158.631z"/>
		</g>
		<g>
			<path style="fill:#FFFFFF;" d="M171.681,157.868c-0.381,0.486-0.326,1.407-1.09,1.561l-1.503-3.41
				c0.653-0.161,1.347-0.323,2.058-0.484L171.681,157.868z"/>
		</g>
		<g>
			<path style="fill:#FFFFFF;" d="M167.509,156.838c0.435,1.197,0.435,2.921-0.531,3.898c-1.034-0.274-1.574-0.919-2.067-1.84
				C164.157,157.052,166.487,157.11,167.509,156.838z"/>
		</g>
		<g>
			<path style="fill:#FFFFFF;" d="M163.341,161.22c-0.876,0.326-0.602-0.702-1.026-1.019c0.261-0.709,0.476-1.632,0.756-2.069
				C163.174,159.173,164.039,160.201,163.341,161.22z"/>
		</g>
		<g>
			<path style="fill:#FFFFFF;" d="M159.16,162.518c0.818-1.026-0.643-3.517,1.3-3.622
				C161.165,160.578,159.319,161.452,159.16,162.518z"/>
		</g>
		<g>
			<path style="fill:#FFFFFF;" d="M202.095,171.908c1.298,1.679,2.223,4.116,0.81,5.956c-1.084,1.846-3.907,2.602-4.173,4.721
				c2.219,1.955,5.638,2.812,6.768,5.69c0.222,2.382-0.163,4.549-1.568,6.284c-5.093,4.121-13.334,3.958-19.515,2.33
				c0.497-8.4,1.413-17.939-0.54-26.292c0.54-2.326,3.418-1.345,4.939-2.326C193.478,168.106,198.682,168.215,202.095,171.908z"/>
		</g>
		<g>
			<path style="fill:#00471B;" d="M198.999,174.777c0.39,1.895-0.428,3.577-2.107,4.386c-2.604,0.702-5.744,2.223-7.8-0.214
				c0.052-2.553-1.469-6.83,1.294-8.083C193.704,171.04,197.114,171.687,198.999,174.777z"/>
		</g>
		<g>
			<path style="fill:#00471B;" d="M198.999,186.972h0.489c1.362,1.568,0.762,3.684,0.557,5.74c-2.125,2.33-6.074,1.953-8.841,2.33
				c-0.445-0.484-1.19,0-1.572-0.484c-1.692-2.716-0.167-6.113-0.27-9.111C192.389,183.235,196.617,184.917,198.999,186.972z"/>
		</g>
		<g>
			<path style="fill:#FFFFFF;" d="M184.692,221.609c-0.694,0.107-1.358,0.317-2.121,0.266c-0.038-0.972,0-2.604,1.046-3.414
				C183.998,219.497,185.077,220.247,184.692,221.609z"/>
		</g>
		<g>
			<path style="fill:#FFFFFF;" d="M190.655,221.33c-0.488-1.032,0.437-1.833,1.028-2.596l1.576,2.326L190.655,221.33z"/>
		</g>
		<g>
			<path style="fill:#FFFFFF;" d="M180.518,220.581v1.294h-2.872c0.437-0.972,1.296-1.731,1.296-2.87
				C179.438,219.107,180.254,219.921,180.518,220.581z"/>
		</g>
		<g>
			<path style="fill:#FFFFFF;" d="M188.59,221.609c-0.702-0.12-1.559,0.206-2.111-0.278c0.492-1.293,0.604-1.032,1.032-2.326
				C188.483,219.6,188.693,220.529,188.59,221.609z"/>
		</g>
		<g>
			<path style="fill:#FFFFFF;" d="M176.073,222.097h-2.87c-0.223-1.306,1.523-1.799,1.84-2.827
				C175.155,220.529,176.613,220.581,176.073,222.097z"/>
		</g>
		<g>
			<path style="fill:#FFFFFF;" d="M167.509,222.097c-0.7,0.48-1.731,0.154-2.598,0.27l1.786-2.87
				C167.344,220.247,167.618,221.061,167.509,222.097z"/>
		</g>
		<g>
			<path style="fill:#FFFFFF;" d="M163.071,222.367c-0.435,0-1.626,0.595-2.332,0c0.321-0.981,1.09-2.009,1.838-2.6
				C163.125,220.247,163.72,221.489,163.071,222.367z"/>
		</g>
		<g>
			<path style="fill:#FFFFFF;" d="M171.415,220.791c0.437,1.576-0.865,1.735-2.118,1.576l0.818-2.6
				C170.659,219.818,170.98,220.461,171.415,220.791z"/>
		</g>
		<g>
			<path style="fill:#FFFFFF;" d="M155.8,222.903c-0.051-1.187,1.088-1.902,1.576-2.866l1.308,2.33L155.8,222.903z"/>
		</g>
		<g>
			<path style="fill:#FFFFFF;" d="M150.33,222.632c-0.27,0-0.591,0.06-0.754-0.265c-0.103-0.878,0.658-1.366,1.294-2.069
				C151.473,220.846,150.87,221.986,150.33,222.632z"/>
		</g>
		<g>
			<path style="fill:#FFFFFF;" d="M153.958,220.298c0.711,0.882-0.158,1.748-0.276,2.605h-1.287
				C152.94,222.046,153.043,220.791,153.958,220.298z"/>
		</g>
	</g>
	<g>
		<g>
			<path style="fill:#FBAA29;" d="M179.475,224.684c-7.802,2.124-17.449,4.185-23.955,10.687c-0.154,0.48,0.221,0.763,0.555,1.024
				c6.871-2.647,12.998-7.141,20.535-8.284c4.506-0.54,9.368-1.139,14.037-0.54c1.512,0.754,2.655,1.833,3.349,3.405
				c1.311,7.321-4.433,12.358-7.517,18.214l-6.779,8.023c-0.546,2.651,1.891,4.009,2.859,6.009
				c7.488,11.004,16.157,22.501,23.422,34.101l-0.758-0.283c-8.134-9.809-15.117-17.125-22.921-27.316h-0.497
				c-2.013-4.442-9.918-7.423-6.226-12.735c0.047-1.293,0.919-2.596,0.221-3.898c-1.095-2.441-3.753-0.822-5.433-0.822
				l-15.607,9.115c-2.868,1.302-6.117,0.977-9.1,0.27c-2.934-1.246-2.861-5.311-6.779-5.204c-2.058,3.204-5.691,5.586-9.37,5.204
				c-4.292-0.544-7.372-3.418-9.107-7.261c0.116-1.516-1.516-2.981-1.296-4.986l0.276-6.716c0.435,1.182,1.46,2.167,2.326,2.818
				c1.673-0.334,1.401-1.251,1.032-2.604c-1.638-4.129-1.469-9.107,0.808-13.009c0.696,5.358,0.919,12.084,6.995,14.088
				c2.111,0.214,4.333,0.976,6.016-0.81c1.298-6.515,4.545-12.628,8.826-17.404C157.044,225.34,167.389,224.856,179.475,224.684z"/>
		</g>
		<g>
			<path style="fill:#FBAA29;" d="M208.097,230.167c0.805,9.21-4.832,16.423-10.191,23.414c-1.144,2.322-3.851,4.343-3.363,7.051
				l21.088,34.568c-9.06-10.996-17.404-23.572-26.305-35.613c0.129-2.75,3.316-4.335,2.887-7.316l0.497-0.48
				c-0.124-0.154-0.339-0.325-0.227-0.54c1.139-1.362-0.056-4.001,0.493-5.74c2.33-5.102,6.597-11.445,2.861-17.129
				c1.096-2.06,4.009-1.731,6.237-2.116C204.19,226.535,207.335,227.46,208.097,230.167z"/>
		</g>
	</g>
	<g>
		<path d="M147.695,211.924l-6.506,2.121l-3.697,5.817l2.611,0.694c0,0,4.585-1.195,5.196-0.9c0.036,0.017,0.056,0.038,0.056,0.068
			c0.127,0.514,3.418-7.256,3.418-7.256L147.695,211.924z"/>
	</g>
	<g>
		<path d="M203.719,297.14l6.502,2.124l3.692,5.817l-2.604,0.69c0,0-4.592-1.195-5.196-0.891c-0.03,0.013-0.052,0.034-0.064,0.064
			c-0.12,0.501-3.414-7.256-3.414-7.256L203.719,297.14z"/>
	</g>
	<g>
		<path d="M213.28,294.604l6.511,2.12l3.692,5.826l-2.613,0.694c0,0-4.584-1.199-5.187-0.9c-0.038,0.021-0.064,0.043-0.073,0.073
			c-0.129,0.501-3.405-7.269-3.405-7.269L213.28,294.604z"/>
	</g>
	<g>
		<path d="M159.886,246.213"/>
	</g>
	<g>
		<path d="M126.644,250.989c2.973,1.289,6.226,1.726,9.376,2.596c-0.769,1.143-0.715,2.6-0.546,3.628
			c-1.848,2.005-4.562,2.925-7.269,2.116c-3.465-1.028-5.909-3.787-7.258-7.051c-0.056-1.953-1.242-3.992,0.491-5.2
			C123.55,247.558,124.678,250.223,126.644,250.989z"/>
	</g>
</g>
</svg>
